<svg xmlns="http://www.w3.org/2000/svg" width="49.771" height="59.132" viewBox="0 0 49.771 59.132"><g transform="translate(-182.398 -380.241)"><path d="M213.373,406.622a6.089,6.089,0,1,1-6.091-6.089A6.088,6.088,0,0,1,213.373,406.622Z" fill="none" stroke="#e60878" stroke-miterlimit="10" stroke-width="2.5"/><path d="M219.4,428.677v-5.505a4.8,4.8,0,0,0-4.788-4.778H199.941a4.807,4.807,0,0,0-4.776,4.8l0,5.505" fill="none" stroke="#e60878" stroke-miterlimit="10" stroke-width="2.5"/><path d="M225.919,390.854h-7.4l-9.789-8.6a2.082,2.082,0,0,0-2.871,0l-9.8,8.6h-7.4a5.015,5.015,0,0,0-5,5v37.269a5.015,5.015,0,0,0,5,5h37.27a5.015,5.015,0,0,0,5-5V395.854A5.015,5.015,0,0,0,225.919,390.854Z" fill="none" stroke="#e60878" stroke-linecap="round" stroke-linejoin="round" stroke-width="2.5"/></g></svg>