<svg xmlns="http://www.w3.org/2000/svg" width="54.467" height="55.152" viewBox="0 0 54.467 55.152"><g transform="translate(-310.449 -264.264)"><path d="M355.141,270.889h5.525a3.009,3.009,0,0,1,3,3v41.277a3.009,3.009,0,0,1-3,3H314.7a3.009,3.009,0,0,1-3-3V273.889a3.009,3.009,0,0,1,3-3h8.254" fill="none" stroke="#e60878" stroke-linejoin="round" stroke-width="2.5"/><line x2="7.186" transform="translate(342.014 270.889)" fill="none" stroke="#e60878" stroke-linejoin="round" stroke-width="2.5"/><line x2="7.186" transform="translate(328.889 270.889)" fill="none" stroke="#e60878" stroke-linejoin="round" stroke-width="2.5"/><line x2="43.201" transform="translate(316.083 284.691)" fill="none" stroke="#e60878" stroke-linejoin="round" stroke-width="2.5"/><line y2="11.641" transform="translate(323.158 265.514)" fill="none" stroke="#e60878" stroke-linecap="round" stroke-miterlimit="10" stroke-width="2.5"/><line y2="11.641" transform="translate(349.408 265.514)" fill="none" stroke="#e60878" stroke-linecap="round" stroke-miterlimit="10" stroke-width="2.5"/><line y2="11.641" transform="translate(336.283 265.514)" fill="none" stroke="#e60878" stroke-linecap="round" stroke-miterlimit="10" stroke-width="2.5"/><rect width="0.859" height="0.86" transform="translate(329.268 300.951)" fill="#394553" stroke="#e60878" stroke-miterlimit="10" stroke-width="2.5"/><rect width="0.861" height="0.86" transform="translate(321.279 300.951)" fill="#394553" stroke="#e60878" stroke-miterlimit="10" stroke-width="2.5"/><rect width="0.859" height="0.86" transform="translate(337.254 300.951)" fill="#394553" stroke="#e60878" stroke-miterlimit="10" stroke-width="2.5"/><rect width="0.859" height="0.86" transform="translate(345.24 300.951)" fill="#394553" stroke="#e60878" stroke-miterlimit="10" stroke-width="2.5"/><rect width="0.861" height="0.86" transform="translate(353.227 300.951)" fill="#394553" stroke="#e60878" stroke-miterlimit="10" stroke-width="2.5"/><rect width="0.859" height="0.86" transform="translate(329.268 292.967)" fill="#394553" stroke="#e60878" stroke-miterlimit="10" stroke-width="2.5"/><rect width="0.859" height="0.86" transform="translate(337.254 292.967)" fill="#394553" stroke="#e60878" stroke-miterlimit="10" stroke-width="2.5"/><rect width="0.859" height="0.86" transform="translate(345.24 292.967)" fill="#394553" stroke="#e60878" stroke-miterlimit="10" stroke-width="2.5"/><rect width="0.861" height="0.86" transform="translate(353.227 292.967)" fill="#394553" stroke="#e60878" stroke-miterlimit="10" stroke-width="2.5"/><rect width="0.859" height="0.86" transform="translate(329.268 308.934)" fill="#394553" stroke="#e60878" stroke-miterlimit="10" stroke-width="2.5"/><rect width="0.861" height="0.86" transform="translate(321.279 308.934)" fill="#394553" stroke="#e60878" stroke-miterlimit="10" stroke-width="2.5"/><rect width="0.859" height="0.86" transform="translate(337.254 308.934)" fill="#394553" stroke="#e60878" stroke-miterlimit="10" stroke-width="2.5"/><rect width="0.859" height="0.86" transform="translate(345.24 308.934)" fill="#394553" stroke="#e60878" stroke-miterlimit="10" stroke-width="2.5"/></g></svg>