<svg xmlns="http://www.w3.org/2000/svg" width="52.928" height="62.212" viewBox="0 0 52.928 62.212"><g transform="translate(-181.348 -37.241)"><path d="M205.918,53.258A13.569,13.569,0,1,1,218.282,65.6" fill="none" stroke="#e60878" stroke-linejoin="round" stroke-width="2.5"/><path d="M192.473,81.869c1.95,1.939,4.486,2.734,6.587.961l20.049-16.706L205.431,52.447,188.726,72.5c-1.773,2.1-.978,4.636.961,6.587Z" fill="none" stroke="#e60878" stroke-linejoin="round" stroke-width="2.5"/><line x2="17.981" y2="17.98" transform="translate(208.576 44.959)" fill="none" stroke="#e60878" stroke-linejoin="round" stroke-width="2.5"/><line x1="3.482" y2="3.481" transform="translate(198.999 69.075)" fill="none" stroke="#e60878" stroke-linecap="round" stroke-width="2.5"/><path d="M206.914,92.315a6.709,6.709,0,0,0-9.445.227L193.9,96.134a6.533,6.533,0,1,1-9.27-9.192l3.22-3.249" fill="none" stroke="#e60878" stroke-linecap="round" stroke-miterlimit="10" stroke-width="2.5"/></g></svg>