<?xml version="1.0" encoding="utf-8"?>
<!-- Generator: Adobe Illustrator 23.0.3, SVG Export Plug-In . SVG Version: 6.00 Build 0)  -->
<svg version="1.1" id="Camada_1" xmlns="http://www.w3.org/2000/svg" xmlns:xlink="http://www.w3.org/1999/xlink" x="0px" y="0px"
	 viewBox="0 0 388.5 96" style="enable-background:new 0 0 388.5 96;" xml:space="preserve">
<style type="text/css">
	.st0{enable-background:new    ;}
	.st1{fill:#FFFFFF;}
	.st2{fill:none;stroke:#FFFFFF;}
</style>
<g transform="translate(-134.883 -456.758)">
	<g class="st0">
		<path class="st1" d="M376.8,494.3c0,3.6-1,6.3-3,8.3s-4.7,2.9-8.3,2.9h-6.9v-21.4h7.4c3.4,0,6.1,0.9,8,2.6S376.8,491,376.8,494.3z
			 M370.8,494.5c0-2-0.4-3.4-1.2-4.4s-2-1.4-3.5-1.4h-1.7v12h1.3c1.8,0,3-0.5,3.9-1.5C370.4,498.2,370.8,496.6,370.8,494.5z"/>
		<path class="st1" d="M393.4,505.5h-12.7v-21.4h12.7v4.6h-6.9v3.4h6.4v4.6h-6.4v4h6.9V505.5z"/>
		<path class="st1" d="M412.4,505.5h-16.7v-3.6l9.3-13.2h-9.1v-4.7h16.2v3.6l-9.3,13.2h9.5V505.5z"/>
		<path class="st1" d="M428.2,505.5h-12.7v-21.4h12.7v4.6h-6.9v3.4h6.4v4.6h-6.4v4h6.9V505.5z"/>
		<path class="st1" d="M441.3,505.5l-4.4-15.4h-0.1c0.2,2.6,0.3,4.7,0.3,6.1v9.3h-5.1v-21.4h7.7l4.5,15.2h0.1l4.4-15.2h7.7v21.4H451
			v-9.4c0-0.5,0-1,0-1.6s0.1-2.1,0.2-4.4h-0.1l-4.3,15.4H441.3z"/>
		<path class="st1" d="M460.9,484.1h7.5c2.9,0,5.1,0.4,6.5,1.3c1.4,0.9,2.1,2.2,2.1,4c0,1.2-0.3,2.2-0.9,3.1s-1.4,1.4-2.4,1.6v0.1
			c1.3,0.4,2.3,0.9,2.9,1.8s0.9,1.9,0.9,3.2c0,1.9-0.7,3.5-2.2,4.6c-1.5,1.1-3.5,1.7-6,1.7h-8.3V484.1z M466.7,492.3h1.7
			c0.8,0,1.5-0.2,1.9-0.5s0.7-0.8,0.7-1.5c0-1.2-0.9-1.8-2.7-1.8h-1.6V492.3z M466.7,496.5v4.5h2c1.8,0,2.7-0.8,2.7-2.3
			c0-0.7-0.2-1.3-0.7-1.6s-1.2-0.6-2.1-0.6H466.7z"/>
		<path class="st1" d="M486.9,497.7v7.8h-5.8v-21.4h7c5.8,0,8.7,2.1,8.7,6.3c0,2.5-1.2,4.4-3.6,5.8l6.2,9.3h-6.6l-4.5-7.8H486.9z
			 M486.9,493.4h1.1c2,0,3-0.9,3-2.7c0-1.5-1-2.2-3-2.2h-1.1V493.4z"/>
		<path class="st1" d="M521.5,494.8c0,3.6-0.9,6.3-2.7,8.2s-4.4,2.8-7.8,2.8c-3.4,0-5.9-0.9-7.7-2.8s-2.7-4.6-2.7-8.2
			c0-3.6,0.9-6.3,2.7-8.2c1.8-1.9,4.4-2.8,7.8-2.8c3.4,0,6,0.9,7.7,2.8S521.5,491.2,521.5,494.8z M506.8,494.8
			c0,4.1,1.4,6.2,4.3,6.2c1.5,0,2.6-0.5,3.3-1.5s1.1-2.6,1.1-4.7c0-2.1-0.4-3.7-1.1-4.7c-0.7-1-1.8-1.5-3.2-1.5
			C508.2,488.5,506.8,490.6,506.8,494.8z"/>
	</g>
	<g class="st0">
		<path class="st1" d="M367.2,525.2c0,1-0.4,1.8-1.1,2.4s-1.7,0.9-3,0.9s-2.3-0.2-3.2-0.6v-1.8c0.5,0.2,1.1,0.4,1.7,0.6
			s1.1,0.2,1.6,0.2c0.7,0,1.3-0.1,1.6-0.4s0.5-0.7,0.5-1.1c0-0.4-0.2-0.8-0.5-1.1s-1-0.6-2-1.1c-1-0.4-1.8-0.9-2.2-1.4
			c-0.4-0.5-0.6-1.2-0.6-2c0-1,0.3-1.7,1-2.2s1.6-0.8,2.7-0.8c1.1,0,2.2,0.2,3.3,0.7l-0.6,1.5c-1-0.4-1.9-0.6-2.7-0.6
			c-0.6,0-1.1,0.1-1.4,0.4c-0.3,0.3-0.5,0.6-0.5,1c0,0.3,0.1,0.6,0.2,0.8s0.3,0.4,0.6,0.6s0.8,0.4,1.5,0.7c0.8,0.3,1.5,0.7,1.8,1
			c0.4,0.3,0.7,0.6,0.9,1C367.1,524.3,367.2,524.7,367.2,525.2z"/>
		<path class="st1" d="M378.9,528.3l-1.1-3.2h-4.4l-1.1,3.2h-2l4.3-11.5h2l4.3,11.5H378.9z M376.8,516c-0.2,0-0.4,0-0.6-0.1
			c-0.2-0.1-0.4-0.2-0.6-0.3c-0.2-0.1-0.4-0.2-0.6-0.3c-0.2-0.1-0.4-0.1-0.6-0.1c-0.4,0-0.7,0.3-0.9,0.9h-1c0.1-0.7,0.3-1.3,0.6-1.7
			c0.3-0.4,0.8-0.6,1.3-0.6c0.2,0,0.4,0,0.7,0.1c0.2,0.1,0.4,0.2,0.6,0.3c0.2,0.1,0.4,0.2,0.6,0.3c0.2,0.1,0.4,0.1,0.6,0.1
			c0.4,0,0.7-0.3,0.8-0.9h1c-0.1,0.7-0.3,1.2-0.6,1.6C377.7,515.8,377.3,516,376.8,516z M377.3,523.5l-1.1-3.1
			c-0.1-0.2-0.2-0.5-0.3-1c-0.1-0.4-0.2-0.8-0.3-1c-0.1,0.6-0.3,1.3-0.6,2.1l-1,3H377.3z"/>
		<path class="st1" d="M395,522.6c0,1.9-0.5,3.3-1.4,4.3s-2.2,1.5-3.9,1.5c-1.7,0-3-0.5-4-1.5s-1.4-2.5-1.4-4.4
			c0-1.9,0.5-3.3,1.4-4.3c0.9-1,2.3-1.5,4-1.5c1.7,0,3,0.5,3.9,1.5C394.5,519.3,395,520.7,395,522.6z M386.2,522.6
			c0,1.4,0.3,2.5,0.9,3.2s1.4,1.1,2.5,1.1c1.1,0,1.9-0.4,2.5-1.1s0.8-1.8,0.8-3.2c0-1.4-0.3-2.5-0.8-3.2c-0.6-0.7-1.4-1.1-2.5-1.1
			c-1.1,0-2,0.4-2.5,1.1C386.5,520.1,386.2,521.2,386.2,522.6z"/>
		<path class="st1" d="M413.9,520.4c0,1.2-0.4,2.1-1.2,2.7c-0.8,0.6-1.9,1-3.3,1h-1.2v4.3h-1.9v-11.4h3.3c1.4,0,2.5,0.3,3.2,0.9
			C413.6,518.4,413.9,519.2,413.9,520.4z M408.2,522.5h1c1,0,1.7-0.2,2.1-0.5c0.4-0.3,0.7-0.9,0.7-1.6c0-0.7-0.2-1.1-0.6-1.5
			c-0.4-0.3-1-0.5-1.9-0.5h-1.3V522.5z"/>
		<path class="st1" d="M425.7,528.3l-1.1-3.2h-4.4l-1.1,3.2h-2l4.3-11.5h2l4.3,11.5H425.7z M424.1,523.5l-1.1-3.1
			c-0.1-0.2-0.2-0.5-0.3-1c-0.1-0.4-0.2-0.8-0.3-1c-0.1,0.6-0.3,1.3-0.6,2.1l-1,3H424.1z"/>
		<path class="st1" d="M440.6,516.9v7.4c0,0.8-0.2,1.6-0.5,2.2c-0.4,0.6-0.9,1.1-1.6,1.5c-0.7,0.3-1.5,0.5-2.5,0.5
			c-1.4,0-2.5-0.4-3.3-1.1c-0.8-0.8-1.2-1.8-1.2-3.1v-7.4h1.9v7.2c0,0.9,0.2,1.6,0.7,2.1c0.4,0.4,1.1,0.7,2,0.7
			c1.8,0,2.6-0.9,2.6-2.8v-7.2H440.6z"/>
		<path class="st1" d="M445.9,528.3v-11.4h1.9v9.8h4.8v1.6H445.9z"/>
		<path class="st1" d="M467.1,522.6c0,1.9-0.5,3.3-1.4,4.3s-2.2,1.5-3.9,1.5c-1.7,0-3-0.5-4-1.5s-1.4-2.5-1.4-4.4
			c0-1.9,0.5-3.3,1.4-4.3c0.9-1,2.3-1.5,4-1.5c1.7,0,3,0.5,3.9,1.5C466.6,519.3,467.1,520.7,467.1,522.6z M458.4,522.6
			c0,1.4,0.3,2.5,0.9,3.2s1.4,1.1,2.5,1.1c1.1,0,1.9-0.4,2.5-1.1s0.8-1.8,0.8-3.2c0-1.4-0.3-2.5-0.8-3.2c-0.6-0.7-1.4-1.1-2.5-1.1
			c-1.1,0-2,0.4-2.5,1.1C458.7,520.1,458.4,521.2,458.4,522.6z"/>
		<path class="st1" d="M480.7,516.2h1.4v15.9h-1.4V516.2z"/>
		<path class="st1" d="M502.9,525.2c0,1-0.4,1.8-1.1,2.4s-1.7,0.9-3,0.9s-2.3-0.2-3.2-0.6v-1.8c0.5,0.2,1.1,0.4,1.7,0.6
			s1.1,0.2,1.6,0.2c0.7,0,1.3-0.1,1.6-0.4s0.5-0.7,0.5-1.1c0-0.4-0.2-0.8-0.5-1.1s-1-0.6-2-1.1c-1-0.4-1.8-0.9-2.2-1.4
			c-0.4-0.5-0.6-1.2-0.6-2c0-1,0.3-1.7,1-2.2s1.6-0.8,2.7-0.8c1.1,0,2.2,0.2,3.3,0.7l-0.6,1.5c-1-0.4-1.9-0.6-2.7-0.6
			c-0.6,0-1.1,0.1-1.4,0.4c-0.3,0.3-0.5,0.6-0.5,1c0,0.3,0.1,0.6,0.2,0.8s0.3,0.4,0.6,0.6s0.8,0.4,1.5,0.7c0.8,0.3,1.5,0.7,1.8,1
			c0.4,0.3,0.7,0.6,0.9,1C502.8,524.3,502.9,524.7,502.9,525.2z"/>
		<path class="st1" d="M515,520.4c0,1.2-0.4,2.1-1.2,2.7c-0.8,0.6-1.9,1-3.3,1h-1.2v4.3h-1.9v-11.4h3.3c1.4,0,2.5,0.3,3.2,0.9
			C514.7,518.4,515,519.2,515,520.4z M509.3,522.5h1c1,0,1.7-0.2,2.1-0.5c0.4-0.3,0.7-0.9,0.7-1.6c0-0.7-0.2-1.1-0.6-1.5
			c-0.4-0.3-1-0.5-1.9-0.5h-1.3V522.5z"/>
	</g>
	<g transform="translate(134.883 457.758)">
		<g class="st0">
			<path class="st1" d="M31.7,74H18.2V47.9c0-3.2,0.1-6.1,0.2-8.7c-0.8,1-1.9,2.1-3.1,3.2L9.7,47l-6.9-8.5l16.9-13.8h12V74z"/>
			<path class="st1" d="M78.4,49.4c0,8.7-1.5,15.1-4.4,19.2c-2.9,4.1-7.4,6.1-13.4,6.1c-5.9,0-10.3-2.1-13.3-6.4
				c-3-4.2-4.5-10.5-4.5-18.9c0-8.8,1.5-15.2,4.4-19.3c2.9-4.1,7.4-6.1,13.4-6.1c5.9,0,10.3,2.1,13.3,6.4
				C76.9,34.7,78.4,41,78.4,49.4z M56.1,49.4c0,5.6,0.3,9.4,1,11.5c0.7,2.1,1.9,3.1,3.5,3.1c1.7,0,2.8-1.1,3.5-3.2s1-6,1-11.4
				c0-5.5-0.3-9.3-1-11.5c-0.7-2.2-1.9-3.3-3.5-3.3c-1.6,0-2.8,1.1-3.5,3.2C56.4,40,56.1,43.8,56.1,49.4z"/>
			<path class="st1" d="M166.4,74h-13.5V47.9c0-3.2,0.1-6.1,0.2-8.7c-0.8,1-1.9,2.1-3.1,3.2l-5.6,4.6l-6.9-8.5l16.9-13.8h12V74z"/>
			<path class="st1" d="M206.8,74h-13.5V47.9c0-3.2,0.1-6.1,0.2-8.7c-0.8,1-1.9,2.1-3.1,3.2l-5.6,4.6l-6.9-8.5l16.9-13.8h12V74z"/>
		</g>
		<g class="st0">
			<path class="st2" d="M140.5,74h-12.7l-3.9-3.8c-4.3,3-9.1,4.5-14.6,4.5c-5.5,0-9.8-1.3-13-3.8c-3.2-2.5-4.8-5.9-4.8-10.2
				c0-3.1,0.7-5.7,2-7.9s3.7-4.2,7-6.1c-1.7-1.9-2.9-3.8-3.7-5.5c-0.8-1.8-1.1-3.7-1.1-5.8c0-3.4,1.3-6.2,3.9-8.3
				c2.6-2.1,6.1-3.1,10.5-3.1c4.2,0,7.5,1,10,2.9s3.8,4.5,3.8,7.8c0,2.7-0.8,5.1-2.3,7.3c-1.5,2.2-4.1,4.3-7.5,6.3l9.6,9.3
				c1.6-2.6,3-6,4.1-10.1h10.7c-0.8,3-1.9,6-3.3,8.9s-3,5.4-4.8,7.7L140.5,74z M102.3,59.7c0,1.9,0.7,3.5,2.2,4.6
				c1.4,1.1,3.3,1.7,5.6,1.7c2.8,0,5.4-0.7,7.6-2.1l-11.2-11.1c-1.3,1-2.3,2-3.1,3.1S102.3,58.3,102.3,59.7z M114.4,35.8
				c0-1.2-0.4-2.1-1.2-2.8s-1.9-1-3.1-1c-1.5,0-2.7,0.4-3.6,1.1c-0.9,0.7-1.3,1.7-1.3,3.1c0,2,1.1,4.2,3.2,6.5
				c1.9-1.1,3.4-2.1,4.4-3.2C113.9,38.4,114.4,37.2,114.4,35.8z"/>
		</g>
	</g>
</g>
</svg>
