<svg id="Camada_1" data-name="Camada 1" xmlns="http://www.w3.org/2000/svg" viewBox="0 0 836.5 214.46"><defs><style>.cls-1{fill:#e70c79;}.cls-2{fill:#170c1f;}.cls-3{fill:#fff;}.cls-4{isolation:isolate;}</style></defs><title>logo-pcamp-workshop</title><g id="Logos-pcamp"><g id="Grupo_3" data-name="Grupo 3"><path id="Caminho_1" data-name="Caminho 1" class="cls-1" d="M474.25,214.45l-314.59-14c-5-.22-9-5.14-9-11.14v-59.6c0-6.15,4.2-11.14,9.37-11.14H474.6c5.17,0,9.37,5,9.37,11.14v73.59C484,209.63,479.56,214.69,474.25,214.45Z"/><path id="Caminho_2" data-name="Caminho 2" class="cls-2" d="M356,54.15V53a15.06,15.06,0,0,0-13.33-15.08,14.56,14.56,0,0,0-14.1,6,18.59,18.59,0,0,0-.88,19.16,15.06,15.06,0,0,0,24.83,2.1,17.26,17.26,0,0,0,3.48-11m-.58-49.28H369c.29,1,.41,74.4.15,77a116.64,116.64,0,0,1-13.74.09V76.55l-.27-.14c-.35.29-.72.56-1.06.85a22.91,22.91,0,0,1-8.65,5.09,24.22,24.22,0,0,1-24.16-5.45,28,28,0,0,1-9.49-18.59A32.63,32.63,0,0,1,315,39.08a25,25,0,0,1,16.34-13.36,23.68,23.68,0,0,1,22.39,5.34l1.33,1.17.27-.12Z"/><path id="Caminho_3" data-name="Caminho 3" class="cls-2" d="M163.57,54.55c0,.51.1,1.47.2,2.42a13.38,13.38,0,0,0,.28,1.68,14.85,14.85,0,0,0,12.57,11.92,14.65,14.65,0,0,0,15.53-7.9A18.42,18.42,0,0,0,194.07,53a15.26,15.26,0,0,0-25.4-11.4,16.44,16.44,0,0,0-5.08,12.93m.64,21.71v26.15H150.44v-76H164.1c.27,1.88-.06,3.79.22,5.9L165.8,31a23.17,23.17,0,0,1,11.75-5.73,24.32,24.32,0,0,1,22.7,7.74,28.08,28.08,0,0,1,7.33,15.52,34.3,34.3,0,0,1-1.05,15.69,28.07,28.07,0,0,1-12.82,16,23.93,23.93,0,0,1-27.77-2.56c-.48-.42-1-.82-1.72-1.45"/><path id="Caminho_4" data-name="Caminho 4" class="cls-2" d="M276.2,70.5a14.07,14.07,0,0,0,13-8.65,18,18,0,0,0,.37-14.53,14.42,14.42,0,0,0-14-9.29,14.74,14.74,0,0,0-14,9.57,19.73,19.73,0,0,0-1,9.54A15,15,0,0,0,276.19,70.5m-.77,13a29.37,29.37,0,1,1,29.44-29.84c0,.12,0,.23,0,.35v.19a29,29,0,0,1-28.66,29.3h-.8"/><path id="Caminho_5" data-name="Caminho 5" class="cls-2" d="M381.58,26.41h14c0,.6.08,1.15.08,1.7,0,8,0,16,0,24,0,2.89.17,5.77.4,8.66a13.49,13.49,0,0,0,.89,3.8,9.14,9.14,0,0,0,9.27,6,10.28,10.28,0,0,0,5.93-1.78,9.44,9.44,0,0,0,3.91-6.86c.28-3,.44-5.93.46-8.9.06-8.3,0-16.61,0-24.92V26.43h13.8a8.66,8.66,0,0,1,.11,1c0,9.71,0,19.41-.1,29.12a42.11,42.11,0,0,1-1.11,9.88A20.69,20.69,0,0,1,413,82.76a31,31,0,0,1-15.19-.27,20.22,20.22,0,0,1-14-12.87,26.75,26.75,0,0,1-1.75-8.3c-.25-4-.44-7.94-.48-11.92-.07-7.12,0-14.25,0-21.38,0-.51.05-1,.07-1.6"/><path id="Caminho_6" data-name="Caminho 6" class="cls-2" d="M496.78,37.64l-11.43,6.3c-.52-.48-1.05-.92-1.54-1.4-5.91-6-16.19-5.51-21.44-2.65a15.69,15.69,0,0,0-8.6,15.21,15,15,0,0,0,8.4,13.82,17.27,17.27,0,0,0,8.11,1.83,20.15,20.15,0,0,0,9.88-2.14,16.07,16.07,0,0,0,4.16-3.16c.3-.32.55-.68.89-1.11l11,7.52A22.57,22.57,0,0,1,492.45,76a28.57,28.57,0,0,1-15.14,7A39,39,0,0,1,459,81.73a29,29,0,0,1-10.8-47.94,29.47,29.47,0,0,1,15.6-8.11,35.14,35.14,0,0,1,20.23,1.66,27.89,27.89,0,0,1,11.8,8.89c.25.32.48.64.7,1a3,3,0,0,1,.23.48"/><path id="Caminho_7" data-name="Caminho 7" class="cls-2" d="M687.07,81.78h-6.63c-.34-1.17-.32-54,0-55.13h6.63V36a9.68,9.68,0,0,0,.87-.82c.58-.71,1.13-1.44,1.72-2.15A21.27,21.27,0,0,1,704,25.21a18.59,18.59,0,0,1,14.12,4,16.7,16.7,0,0,1,4.88,7c.27.64.52,1.28.8,2,.64-.2.77-.7,1-1.08a26,26,0,0,1,8-8.54,20.75,20.75,0,0,1,12.94-3.49,17.35,17.35,0,0,1,16.38,14,45,45,0,0,1,1.12,10.27q0,15.49,0,31c0,.44,0,.86-.07,1.43a50.38,50.38,0,0,1-6.84.08c0-.58-.09-1.08-.09-1.6V49.66a40.11,40.11,0,0,0-.79-8.74,11.78,11.78,0,0,0-9.64-9,17.31,17.31,0,0,0-19.38,13,43.55,43.55,0,0,0-1.33,10.9c-.08,8.05-.1,16.09-.13,24.14,0,2,0,2-1.93,2h-3.41c-.42,0-.84-.06-1.43-.11v-30a54.46,54.46,0,0,0-.78-10,12,12,0,0,0-11.75-10,17.39,17.39,0,0,0-16.23,10.44,24.92,24.92,0,0,0-1.85,6.94,68.64,68.64,0,0,0-.55,9.93c0,7,0,14,0,21Z"/><path id="Caminho_8" data-name="Caminho 8" class="cls-2" d="M807.44,31.57c-1.48.15-3,.19-4.42.47a21.4,21.4,0,0,0-14.53,10.1,23.37,23.37,0,0,0-2.89,17.31,22.16,22.16,0,0,0,26.16,17.24c.61-.13,1.22-.28,1.82-.46A23,23,0,0,0,828.8,48.11a22.28,22.28,0,0,0-21.36-16.53M785.71,72.66c-.26,2.54-.1,5-.12,7.4s0,4.9,0,7.35v14.85c-2.26.12-4.38.07-6.39,0a1.07,1.07,0,0,1-.19-.18s-.07-.06-.07-.1c0-.44-.09-.87-.09-1.3q0-36.79,0-73.59a1.94,1.94,0,0,1,.16-.48,46,46,0,0,1,6.43,0c0,.55.11,1,.12,1.49V35c0,.46,0,.92.09,1.45.66-.06.83-.5,1.08-.82a29.39,29.39,0,0,1,6.55-6.19A25.44,25.44,0,0,1,805,25.22a28.7,28.7,0,0,1,30.43,20.55,32,32,0,0,1,1,8,28.44,28.44,0,0,1-14.56,26,24.3,24.3,0,0,1-10.51,3.39,27.49,27.49,0,0,1-24.48-9.6c-.24-.26-.48-.51-.73-.75a3,3,0,0,0-.47-.18"/><path id="Caminho_9" data-name="Caminho 9" class="cls-2" d="M612.87,54.83c.1.82.2,2.22.46,3.59a22.2,22.2,0,0,0,25.46,18.37h0l.66-.12a21.17,21.17,0,0,0,16.42-13.42A23.88,23.88,0,0,0,657,49.59,22,22,0,0,0,631.36,32h0c-.64.12-1.26.26-1.88.43a22.84,22.84,0,0,0-16.61,22.44M657,36.24V26.81a21.53,21.53,0,0,1,6.51-.12c.27.92.37,52.94.09,55.05a48,48,0,0,1-6.46.07c0-.52-.11-1-.12-1.43v-6.3c0-.45-.07-.9-.11-1.35l-.3-.09c-.35.37-.71.73-1,1.1a27.75,27.75,0,0,1-15.19,9,28.35,28.35,0,0,1-33.64-21.83h0v0A28.67,28.67,0,0,1,608.54,42,27.92,27.92,0,0,1,630.3,25.35a25.85,25.85,0,0,1,25.51,10.06c.26.32.54.64.81,1l.4-.14"/><path id="Caminho_10" data-name="Caminho 10" class="cls-2" d="M523.64,26.32h8.11a82.86,82.86,0,0,1,.08,12h-8.18V81.83a112.29,112.29,0,0,1-13.85.1c0-3.57,0-7.18,0-10.79V38.37h-6.86a77.8,77.8,0,0,1-.15-12h7V5.86H523.6c.13,1.66,0,3.35.06,5s0,3.41,0,5.13v10.3Z"/><path id="Caminho_11" data-name="Caminho 11" class="cls-2" d="M230.1,82H216.5c-.28-1-.39-53.44-.11-55.66,3.85,0,7.69,0,11.68,0,.24,2.18,0,4.26.3,6.36a14.1,14.1,0,0,1,9.75-7.56,12.19,12.19,0,0,1,7.93,1.22c-1.36,4-2.81,7.92-4.28,11.89-.86-.32-1.58-.6-2.33-.83a5.16,5.16,0,0,0-5.52,1.42,9.84,9.84,0,0,0-2.69,5,49,49,0,0,0-1,7.12c-.18,4.54-.11,9.09-.12,13.64V82Z"/><path id="Caminho_12" data-name="Caminho 12" class="cls-2" d="M594.39,70.94c-.43.61-.76,1.12-1.13,1.6a27.41,27.41,0,0,1-15.1,9.61,34.14,34.14,0,0,1-22.85-1.41A27.36,27.36,0,0,1,539,61.91a29.13,29.13,0,0,1,20.42-35.5,33.7,33.7,0,0,1,26.72,3.16,21.89,21.89,0,0,1,8.21,8.33l-5.2,3.27a6.76,6.76,0,0,1-.68-.63,23.32,23.32,0,0,0-15.2-8.72,25.08,25.08,0,0,0-17.2,3,21.6,21.6,0,0,0-10.85,16,22.7,22.7,0,0,0,17.6,25.52A25.06,25.06,0,0,0,588,68.56c.26-.3.53-.59.8-.87a1.59,1.59,0,0,1,.37-.16L594.41,71"/><g id="Grupo_1" data-name="Grupo 1"><path id="Caminho_13" data-name="Caminho 13" class="cls-1" d="M67.72,0A8.13,8.13,0,0,0,69.1.32a65.56,65.56,0,0,1,60.05,48A55.93,55.93,0,0,1,131.21,65a62.68,62.68,0,0,1-27.13,51.33,63.23,63.23,0,0,1-27.79,11.33c-1.92.32-3.9.42-5.86.64-.64.07-1.28.2-1.92.3H63.26a11.65,11.65,0,0,0-1.53-.26,56.36,56.36,0,0,1-11.26-1.65A64.42,64.42,0,0,1,5.85,90,58.69,58.69,0,0,1,.53,68.55,14.76,14.76,0,0,0,0,66.18V62.76A20,20,0,0,0,.55,60,55,55,0,0,1,2,50,63.7,63.7,0,0,1,35.19,7.75,64.36,64.36,0,0,1,62.53.35,11.09,11.09,0,0,0,64.05,0Z"/><path id="Caminho_14" data-name="Caminho 14" class="cls-3" d="M77.45,73.78H73.11A11.56,11.56,0,0,1,73,72.35v-14c0-.43.07-.85.12-1.38h4.29l.26,1.22c4.81-2.62,7-2.43,9.9.91l.81-.78A6.65,6.65,0,0,1,95,56.65a5,5,0,0,1,3.72,4.15A17.08,17.08,0,0,1,99,63.66c0,2.89,0,5.77,0,8.66,0,.46-.08.93-.13,1.43H94.48c0-.54-.08-1-.08-1.48V65.06a20.4,20.4,0,0,0-.21-2.21,2.32,2.32,0,0,0-1.6-2.18,2.72,2.72,0,0,0-3,.77,4.87,4.87,0,0,0-1,1.92,10.28,10.28,0,0,0-.27,2.47c0,2.14,0,4.28,0,6.42,0,.47,0,.94-.07,1.5H83.84c0-.53-.13-1-.14-1.55,0-2.62,0-5.24,0-7.87a6.92,6.92,0,0,0-.25-1.8,2.6,2.6,0,0,0-3.08-2,2.64,2.64,0,0,0-1.26.68,3.6,3.6,0,0,0-1.27,2.25,20.61,20.61,0,0,0-.25,2.6c0,2,0,4.11,0,6.16,0,.47,0,.94-.06,1.55"/><path id="Caminho_15" data-name="Caminho 15" class="cls-3" d="M13.77,80c-.62,0-1.19-.05-1.82-.1-.23,0-.5-.43-.61-.7a2,2,0,0,1-.06-.76V58.65a9.08,9.08,0,0,1,.07-1v-.06a4.48,4.48,0,0,0,.07-.64h4.27c.08.52.15.88.23,1.31l.35-.22.13-.08a1,1,0,0,1,.2-.13,8,8,0,0,1,4.46-1.43,7.57,7.57,0,0,1,6,3,9.8,9.8,0,0,1-.62,12.52,8,8,0,0,1-5.6,2.42,7.18,7.18,0,0,1-4.3-1.44l-.35-.23-.33-.21v7.4A9,9,0,0,1,13.77,80Zm6.28-19.42a4,4,0,0,0-3.74,2.15,7.55,7.55,0,0,0-.53,1.67v0l-.06.26c0,.16-.08.32-.13.49l.13.05,0,.38v.13a2.56,2.56,0,0,0,0,.39A4.19,4.19,0,0,0,19.58,70h.06l.48,0a4.13,4.13,0,0,0,4.1-3.2,7.87,7.87,0,0,0,.12-2.47,4.18,4.18,0,0,0-3.2-3.67A5.74,5.74,0,0,0,20.05,60.62Z"/><path id="Caminho_16" data-name="Caminho 16" class="cls-3" d="M104.45,80a5.69,5.69,0,0,1-1.92-.28V56.92h4.27l0,0c.08.15.15.32.22.48a1.47,1.47,0,0,1,.08.28v.09c0,.06,0,.11.05.18l.17,0a.75.75,0,0,0,.32-.1,7.25,7.25,0,0,1,4-1.5h.45a7.57,7.57,0,0,1,6.48,3.52,9.8,9.8,0,0,1-1,12A8,8,0,0,1,112,74.31a7,7,0,0,1-4-1.25,2.55,2.55,0,0,0-.43-.23l-.12-.07-.28-.14c0,.19,0,.36,0,.53a1,1,0,0,1,0,.24c0,.22,0,.43,0,.65v1.07c0,1.24,0,2.52,0,3.78,0,1-.14,1.13-1.15,1.15-.25,0-.51,0-.72,0h-.08A6.12,6.12,0,0,0,104.45,80Zm6.82-19.39a4,4,0,0,0-.6,0,4.22,4.22,0,0,0-3.75,4.65V66a4.29,4.29,0,0,0,3.81,4h.51a4.18,4.18,0,0,0,4.22-3.23,5.22,5.22,0,0,0-.21-3.59,3.85,3.85,0,0,0-3.37-2.54C111.68,60.65,111.47,60.64,111.27,60.65Z"/><path id="Caminho_17" data-name="Caminho 17" class="cls-3" d="M59.27,74.32A7,7,0,0,1,55,72.78a9.11,9.11,0,0,1-3.56-8.9,8.75,8.75,0,0,1,2.32-5,7.58,7.58,0,0,1,5.53-2.49,7.85,7.85,0,0,1,4.45,1.43l.64.44c.08-.5.15-.84.23-1.28h4.29c0,.16,0,.32.07.49a6,6,0,0,1,.09.84V72.43a7.74,7.74,0,0,1-.07.83c0,.16,0,.32-.06.5H64.66c-.1-.43-.17-.79-.23-1.05l-.81.35-.2.09a16.83,16.83,0,0,1-2.47,1A6.34,6.34,0,0,1,59.27,74.32Zm1-13.67h-.17A3.86,3.86,0,0,0,56.44,63a1.47,1.47,0,0,0-.1.22A8.68,8.68,0,0,0,56,64.56v0c0,.21-.08.42-.12.64a.24.24,0,0,0,.12,0v.66A4.31,4.31,0,0,0,59.71,70l.55,0a4.16,4.16,0,0,0,4.29-3.43,6.58,6.58,0,0,0,.16-1.25,6.16,6.16,0,0,0-.21-1.6,6.45,6.45,0,0,0-.21-.62h0a.05.05,0,0,1,0,0,4.38,4.38,0,0,0-4-2.45Z"/><path id="Caminho_18" data-name="Caminho 18" class="cls-3" d="M48.5,70.51A4.15,4.15,0,0,1,47,72.3a9.9,9.9,0,0,1-7.28,2,8.87,8.87,0,0,1-6.08-14.92,8.94,8.94,0,0,1,4.7-2.67,10,10,0,0,1,7.72,1.07,6.18,6.18,0,0,1,2.6,2.73c-1,.58-2.07,1.2-3.16,1.73a1,1,0,0,1-.91-.24,5.6,5.6,0,0,0-4.67-1.23,4.66,4.66,0,0,0-4.1,4.81A4.46,4.46,0,0,0,40.06,70a5.59,5.59,0,0,0,4.52-1.31,1.06,1.06,0,0,1,.9-.24c1,.63,2,1.34,3,2"/></g><g id="Grupo_2" data-name="Grupo 2"><g id="workshop" class="cls-4"><g class="cls-4"><path class="cls-3" d="M210,176.37l-6-18.47h-.11l-6.1,18.47H190.2L179.76,146.5h8.39l6,19.66,6.16-19.66h7.29l6.22,19.78,6-19.78h8.21l-10.43,29.87Z"/><path class="cls-3" d="M245,177.05a15,15,0,0,1-11.35-4.56,16.35,16.35,0,0,1,0-22.17,16.52,16.52,0,0,1,22.69,0,16.35,16.35,0,0,1,0,22.17A15,15,0,0,1,245,177.05Zm-7.59-15.62a8.77,8.77,0,0,0,2.17,6.22,7,7,0,0,0,5.42,2.28,7.11,7.11,0,0,0,5.47-2.28,10.21,10.21,0,0,0,0-12.43,7.11,7.11,0,0,0-5.47-2.28,7,7,0,0,0-5.42,2.28A8.74,8.74,0,0,0,237.39,161.43Z"/><path class="cls-3" d="M283.05,146.27v7.58a8.29,8.29,0,0,0-1.59-.17,7,7,0,0,0-5.36,1.88c-1.2,1.25-1.83,3.25-1.83,5.93v14.88h-8.09V146.5h7.47v3.87c1.71-2.79,4.5-4.16,8.43-4.16Z"/><path class="cls-3" d="M306.42,146.5h10.15l-11.18,12.71,12,17.16h-9.58L300,164.57l-4.51,5.13v6.67h-8.09V133.61h8.09v26.45Z"/><path class="cls-3" d="M339.82,174.32c-2.28,1.82-5.36,2.73-9.29,2.73-8.15,0-12.43-3.47-12.94-10.37h8.21a3.75,3.75,0,0,0,1.37,2.73,5.1,5.1,0,0,0,3.59,1.14,6.39,6.39,0,0,0,3.48-.74,2.26,2.26,0,0,0,1.19-2c0-.91-.57-1.6-1.71-2.06a27.52,27.52,0,0,0-4.1-1c-1.66-.29-3.25-.63-4.9-1.08a8.41,8.41,0,0,1-4.17-2.68,7.81,7.81,0,0,1-1.71-5.31,8.81,8.81,0,0,1,3.31-7,12.9,12.9,0,0,1,8.67-2.85q6.06,0,9.06,3.08a10.75,10.75,0,0,1,3.19,7h-7.81a3.66,3.66,0,0,0-1.25-2.56,4.8,4.8,0,0,0-3.25-1,5.16,5.16,0,0,0-3,.8,2.52,2.52,0,0,0-1.09,2.11c0,.91.57,1.59,1.71,2a20.76,20.76,0,0,0,4.17,1c1.59.29,3.19.63,4.84,1.09a8.14,8.14,0,0,1,4.11,2.73,8.28,8.28,0,0,1,1.71,5.48A8.37,8.37,0,0,1,339.82,174.32Z"/><path class="cls-3" d="M356.58,133.61v15.62c1.71-2.28,4.45-3.42,8.26-3.42,3.54,0,6.28,1.09,8.16,3.19a12.88,12.88,0,0,1,2.85,8.73v18.64h-8.1V158.64c0-3.93-1.71-5.87-5.07-5.87a5.91,5.91,0,0,0-4.51,1.71,6.89,6.89,0,0,0-1.59,4.84v17.05h-8.1V133.61Z"/><path class="cls-3" d="M396.76,177.05a15,15,0,0,1-11.34-4.56,16.35,16.35,0,0,1,0-22.17,16.52,16.52,0,0,1,22.69,0,16.35,16.35,0,0,1,0,22.17A15,15,0,0,1,396.76,177.05Zm-7.58-15.62a8.77,8.77,0,0,0,2.17,6.22,7,7,0,0,0,5.41,2.28,7.11,7.11,0,0,0,5.48-2.28,10.21,10.21,0,0,0,0-12.43,7.11,7.11,0,0,0-5.48-2.28,7,7,0,0,0-5.41,2.28A8.74,8.74,0,0,0,389.18,161.43Z"/><path class="cls-3" d="M429.65,175.91a10,10,0,0,1-3.59-2.73v15H418V146.5h7.46v3.65c2-2.91,5.13-4.34,9.47-4.34a12.36,12.36,0,0,1,10,4.45,18.69,18.69,0,0,1,0,22.35,12.35,12.35,0,0,1-10,4.44A11.09,11.09,0,0,1,429.65,175.91Zm-3.82-14.48a9.06,9.06,0,0,0,2.06,6.1,6.48,6.48,0,0,0,5.3,2.4,6.7,6.7,0,0,0,5.36-2.4,10.34,10.34,0,0,0,0-12.2,6.72,6.72,0,0,0-5.36-2.39,6.5,6.5,0,0,0-5.3,2.39A9.08,9.08,0,0,0,425.83,161.43Z"/></g></g></g></g></g></svg>