<svg xmlns="http://www.w3.org/2000/svg" width="214" height="149.856" viewBox="0 0 214 149.856"><g transform="translate(-11.688 -356.869)"><g transform="translate(29.367 440.005)"><path d="M29.2,375.5a2.808,2.808,0,0,0,1.262.482,2.525,2.525,0,0,0,1.334-.225,3.022,3.022,0,0,0,1.181-.964c.193-.3.45-.627.739-1a1.971,1.971,0,0,1,1.109-.707h.225c.1.345.193.659.3.932a2.322,2.322,0,0,1,.145.771,5.751,5.751,0,0,0,2.668,3.07,5.543,5.543,0,0,0,3.922.563,6.967,6.967,0,0,0,3.4-1.519c.989-.82,1.977-1.591,2.958-2.331.1,0,.185-.081.257-.217a.844.844,0,0,0,.113-.378,2.093,2.093,0,0,0,.482-1.559,2.2,2.2,0,0,0-.627-1.254.87.87,0,0,0-1.117-.072c-.338.249-.683.5-1.029.739-.94.546-1.881,1.077-2.813,1.591a18.416,18.416,0,0,1-3.11,1.366c-.1-.538-.153-1-.185-1.366a6.724,6.724,0,0,0-.185-1.141,5.665,5.665,0,0,0-2.106-3.038,4.487,4.487,0,0,0-3.44-.82,8.943,8.943,0,0,0-3.777,1.744,13.1,13.1,0,0,0-2.588,2.917,1.423,1.423,0,0,0-.217.748.584.584,0,0,0,.217.522A2.476,2.476,0,0,0,29.2,375.5Z" transform="translate(86.15 -359.088)" fill="#fff"/><path d="M20.356,373.1c.064-.257.153-.659.289-1.214.129-.539.265-1.117.434-1.728.153-.619-.892,2.676-.731,2.138a4.965,4.965,0,0,0,.241-1.117,1.909,1.909,0,0,0,.289-.675c.064-.249-.056-.506-.386-.771q-.1.3-.289,1.061c-.129.522-.273,1.053-.426,1.591-.169.555.876-2.813.715-2.323a4.219,4.219,0,0,0-.241,1.013,5.407,5.407,0,0,0-.233,1.149,10.785,10.785,0,0,1-.241,1.35,1.106,1.106,0,0,1,.338-.241A.474.474,0,0,0,20.356,373.1Z" transform="translate(27.436 -349.472)" fill="#fff"/><path d="M71.805,389.966c.506-1.857-.185.153.33-1.72.193-.892.056-.313.442-1.085.45-1.085.924-2.17,1.4-3.231.49-1.061.981-2.138,1.5-3.223.571-1.294.756-1.463,1.4-2.781s.418-.53,1.061-1.816a19.945,19.945,0,0,1,1.31-1.9c.651-1.029,1.262-2.082,1.841-3.183a3.51,3.51,0,0,0,.434-1.785c-.032-.546-.571-1.013-1.6-1.4-.249-.056-.474-.128-.675-.193q-.277-.1-.675-.193a12.612,12.612,0,0,0-4.911,0,7.58,7.58,0,0,0-2.99.972,6.544,6.544,0,0,0-2.315,2.307,13.447,13.447,0,0,0-.434,1.35q-.338,1.157-.82,2.508c-.321,1.093-.193,1.012-.643,2.3-.257,0-.354-.4-.289-1.214.064-.8,1.085-2.893,1.206-3.673.129-.763.1-1.117-.088-1.061a6.727,6.727,0,0,0-1.3,3.094c-.1.828-.555,1-1.165,3.167-.072.273-.225.474-.289.675-.064.185-.153.442-.289.764a1.655,1.655,0,0,0,.868-.289,17.99,17.99,0,0,1-.675,2.315c-.257.707-.088.289-.338,1a3.635,3.635,0,0,0,.185,2.885,19.667,19.667,0,0,0,1.543-3.569v.394c-.129.57-.289,1.149-.482,1.728a7.7,7.7,0,0,1-.772,1.648l-.474.233c-.2.1-.289.209-.289.338-.2.514-.354,1.013-.49,1.5s.177-.434.04.072c-.707,2.572-.217,1.214-.956,3.657s-1.133,1.5-1.712,4.067c-.137.322-.241.635-.338.924a7.627,7.627,0,0,0-.241.916,5.143,5.143,0,0,1-1.35-.964,4.879,4.879,0,0,0-5.015-1.165c-.707.136-1.431.273-2.17.442a4.2,4.2,0,0,0-1.977,1.013,2.73,2.73,0,0,1-.579.185,2.873,2.873,0,0,1-.772.1.9.9,0,0,0-.916.1,3.327,3.327,0,0,0-.82.771,9.049,9.049,0,0,0-1.3,1.39,3.875,3.875,0,0,1-1.591,1.214.777.777,0,0,0-.338.386,6.281,6.281,0,0,1-.338.579,35.839,35.839,0,0,0-1.9,4.581c-.217.064-.442.137-.7.233q-.482.3-1.157.675h-.1q-1.929,1.748-3.858,3.191t-4.051,2.886a30.775,30.775,0,0,1-2.942,1.744c-1,.514-1.945,1.029-2.845,1.535a7.663,7.663,0,0,1-1.591.779,5.641,5.641,0,0,1-1.881.281,3.159,3.159,0,0,0-.1-.764.806.806,0,0,1,.1-.675c.193-.908.418-1.752.675-2.564.257-.8.514-1.648.772-2.548.193-.643.338-1.165.434-1.543a1.794,1.794,0,0,1,.53-.924,1.861,1.861,0,0,1,1.061-.386c.45-.024,1.061-.04,1.832-.04a9.566,9.566,0,0,0,4.629-1.262,23.562,23.562,0,0,0,2.6-1.921,26.471,26.471,0,0,0,2.315-2.218,4.836,4.836,0,0,0,1.013-1.447q.338-.772.723-1.64a5.507,5.507,0,0,0,.241-1.881c-.032-.619-.466-1.141-1.3-1.6a1.667,1.667,0,0,1-.338-.474,1.086,1.086,0,0,0-.53-.482,6.621,6.621,0,0,1-.627-.482,1.763,1.763,0,0,0-.82-.386,5.361,5.361,0,0,0-3.858-.482c-1.222.249-2.459.555-3.713.908a12.892,12.892,0,0,0-3.52,1.6.929.929,0,0,1-.916.088.873.873,0,0,0-.916.2c-.707.9-1.366,1.792-1.977,2.7s-1.27,1.824-1.977,2.789a16.172,16.172,0,0,0-1.543,3.191,23.813,23.813,0,0,1-1.64,3.56,4.223,4.223,0,0,1,.241-1.969,14.278,14.278,0,0,0,.53-1.495c.193-.587.4-1.125.627-1.64s.434-1.061.627-1.647a14.652,14.652,0,0,0-1.736,2.8,27.008,27.008,0,0,0-1.157,2.885,4.142,4.142,0,0,0,0,2.8,1.452,1.452,0,0,1,0,1.447,7.116,7.116,0,0,0-.1,3.858,4.829,4.829,0,0,0,.1.957,1.288,1.288,0,0,0,.482.779,10.38,10.38,0,0,0,1.929,1.832c.707.515,1.415,1.021,2.122,1.543.193.064.418.145.675.233.249.1.514.217.772.338,1.222.073,2.443.089,3.665.057a9.316,9.316,0,0,0,3.569-.82,17.135,17.135,0,0,0,6.751-5.208,16.424,16.424,0,0,0,1.206-1.351,12.972,12.972,0,0,1,1.109-1.254c.514-.522.981-.965,1.4-1.35s.852-.812,1.3-1.254a8.6,8.6,0,0,0,1.045-1.246c-.265,1.053-.587,2.089-.756,3.175a14.651,14.651,0,0,0-.193,2.411v2.508a3.04,3.04,0,0,0,1.149,2.411c.522.45,1.029.876,1.551,1.3s1.029.852,1.543,1.3a.748.748,0,0,0,.434.233,1.63,1.63,0,0,1,.53.249,12.726,12.726,0,0,0,3.376-.249,6.487,6.487,0,0,0,2.99-1.487l.868-.868c.707-.708,1.366-1.351,1.977-1.937.611-.571,1.206-1.182,1.784-1.825a11.36,11.36,0,0,1,1.061-1.447,12.042,12.042,0,0,0,1.061-1.455,8.334,8.334,0,0,1,.675-.908,6.317,6.317,0,0,1,.772-.731c.121.393.257.763.386,1.117a3.7,3.7,0,0,1,.193,1.2,13.216,13.216,0,0,0,1.4,4.2c.675,1.254,1.431,2.516,2.266,3.81a4.693,4.693,0,0,0,1.832,1.447,1.978,1.978,0,0,0,2.074-.241,1.915,1.915,0,0,0,.82-1.977c-.137-.522-.241-1.045-.338-1.591a6.232,6.232,0,0,0-.53-1.6,10.431,10.431,0,0,1-.627-3.753c.024-1.222.113-2.476.241-3.761a34.467,34.467,0,0,1,.627-4.292q.434-2.073.916-4.2.482-2.218,1.061-4.445c.386-1.471.772-2.99,1.157-4.525C71.042,390.248,71.283,391.839,71.805,389.966ZM31.466,396.46a1.176,1.176,0,0,1,.675,1.447.864.864,0,0,0-.241.482.485.485,0,0,1-.241.386,15.39,15.39,0,0,1-2.122,2.411,12.579,12.579,0,0,1-2.893,1.929A11.024,11.024,0,0,1,31.466,396.46Zm24.594,8.865c-.522.651-1.029,1.294-1.551,1.937-1.407,1.543-2.773,3.094-4.091,4.678a26.539,26.539,0,0,1-4.581,4.292,2.586,2.586,0,0,0-.1-.627.518.518,0,0,1,.1-.538,8.583,8.583,0,0,1,.386-2.7,34.724,34.724,0,0,1,3.954-10.794,8.542,8.542,0,0,1,1.35-2.074,5.809,5.809,0,0,1,2.218-1.591,20.887,20.887,0,0,1,2.122,2.267,7.146,7.146,0,0,1,1.35,2.941A6.6,6.6,0,0,1,56.06,405.326Zm9.822-25.044a5.188,5.188,0,0,0,.289-.916c.064-.289.169-.627.289-1.013v-.1l.1-.193a5.614,5.614,0,0,1,.153,1.35C66.678,379.606,66.4,379.9,65.882,380.281Z" transform="translate(-13.887 -367.213)" fill="#fff"/><path d="M25,369.868H23.944a4.243,4.243,0,0,0-1.246.193,9.05,9.05,0,0,0-.964,1.833,2.1,2.1,0,0,0,.233,1.591,1.653,1.653,0,0,0,1.3.812,8.816,8.816,0,0,0,2.6.587A2.962,2.962,0,0,0,28.1,374.5a2.179,2.179,0,0,0,1.246-2.026,2.267,2.267,0,0,0-1.157-1.929A7.037,7.037,0,0,0,25,369.868Z" transform="translate(40.887 -348.529)" fill="#fff"/><path d="M140.954,394.551a6.462,6.462,0,0,1,.153-.683.489.489,0,0,0-.386-.619c-.33-.1-.715-.209-1.165-.338.2-1.608-.611-2.99-2.4-4.147a16.2,16.2,0,0,0-7.426-2.8c-.458-.064-.924-.129-1.4-.2a3.85,3.85,0,0,1-1.3-.378,6.166,6.166,0,0,0,.289-.723,2.058,2.058,0,0,1,.386-.723,17.034,17.034,0,0,1,2.749-3.818,45.877,45.877,0,0,1,3.617-3.416,2.319,2.319,0,0,1,.908-.723,7.094,7.094,0,0,0,1.206-.723.66.66,0,0,1,.973-.1c.257.129.378.273.378.434a.6.6,0,0,1-.185.434,9.2,9.2,0,0,1-1.64,2.315c-.579.45-1.1.884-1.551,1.3s-.932.812-1.439,1.206c-.137.129-.289.273-.49.434a.462.462,0,0,0-.088.627,6.119,6.119,0,0,0,1.543.579,3.354,3.354,0,0,0,1.35-.1,3.185,3.185,0,0,0,2.5-.972,18.552,18.552,0,0,0,3.424-3.038,8.458,8.458,0,0,0,1.977-3.9,6.185,6.185,0,0,1-.474-.731c-.137-.217-.289-.458-.49-.723a1.193,1.193,0,0,1-.289-.185,2.417,2.417,0,0,0-.386-.289,6.8,6.8,0,0,0-5.586-.876c-.394.072-.764.121-1.117.153a3.877,3.877,0,0,0-1.013.233,8.259,8.259,0,0,0-3.464,1.35q-1.061.784-2.074,1.64a7.982,7.982,0,0,0-1.688,2.025c-.257.2-.522.41-.78.627-.249.233-.538.506-.86.828-.321-.137-.338-.306-.048-.53s.3-.434.048-.635a.732.732,0,0,0-.386.1,10.805,10.805,0,0,0-1.744,2.508c-.45.9-.86,1.824-1.246,2.789a3.712,3.712,0,0,0,0,2.363c.016.056.088.113.113.169-.249.145-.482.289-.788.458h-.1q-1.929,1.748-3.858,3.191t-4.051,2.886a30.773,30.773,0,0,1-2.942,1.744c-1,.514-1.953,1.029-2.845,1.535a7.864,7.864,0,0,1-1.591.779,5.723,5.723,0,0,1-1.889.281,3.6,3.6,0,0,0-.088-.764.836.836,0,0,1,.088-.675c.2-.908.418-1.752.675-2.564.265-.8.522-1.648.78-2.548.185-.643.338-1.165.434-1.543a1.784,1.784,0,0,1,.522-.924,1.866,1.866,0,0,1,1.069-.386c.45-.024,1.061-.04,1.833-.04a9.589,9.589,0,0,0,4.629-1.262,24.346,24.346,0,0,0,2.6-1.921,28.965,28.965,0,0,0,2.315-2.218,4.835,4.835,0,0,0,1.013-1.447c.217-.514.466-1.061.723-1.639a5.712,5.712,0,0,0,.241-1.881c-.04-.619-.466-1.141-1.3-1.6a1.523,1.523,0,0,1-.338-.474,1.122,1.122,0,0,0-.53-.482,6.649,6.649,0,0,1-.635-.482,1.735,1.735,0,0,0-.812-.386,5.383,5.383,0,0,0-3.866-.482c-1.214.249-2.451.555-3.705.908a12.784,12.784,0,0,0-3.52,1.6.929.929,0,0,1-.916.088.873.873,0,0,0-.916.2c-.707.9-1.366,1.792-1.985,2.7s-1.27,1.824-1.977,2.789a16.132,16.132,0,0,0-1.535,3.191c-.2.554-.563,1.213-.844,1.824H97.32c-.153.016-.4-.008-.563,0,.024-.064.008-.169.032-.233.217-.547.4-1.045.53-1.495a16.234,16.234,0,0,1,.627-1.64c.225-.514.426-1.061.627-1.647a14.652,14.652,0,0,0-1.736,2.8c-.354.739-.619,1.479-.892,2.21-.78.016-1.495.048-2.484,0l.86-1.921c.064-1.423.113-2.741.153-3.954a30.051,30.051,0,0,0-.153-3.77,6.318,6.318,0,0,0-1.013-2.789,5.666,5.666,0,0,0-2.556-2.026,1.506,1.506,0,0,1-.86-.386,2.579,2.579,0,0,0-1.688-.828,4.458,4.458,0,0,0-1.889.345c-.9.249-1.76.515-2.6.772a18.012,18.012,0,0,1-2.411.578c-.506.9-1.013,1.736-1.487,2.508-.49.764-.948,1.575-1.4,2.411-.458-.329-.53-.651-.241-.973s.338-.6.137-.86a7.61,7.61,0,0,0-1.1,1.157c-.354.45-.659.836-.924,1.157L76,377.48c0-.129-.1-.257-.281-.394a1.5,1.5,0,0,1,.185-1.246c.265-.514.45-.868.587-1.069l.289-.57c.121-.257.233-.507.338-.723s.121-.354.1-.394-.185.121-.434.442a11.772,11.772,0,0,0-.916,1.4c-.354.611-.707,1.222-1.061,1.824-.354.619-.675,1.2-.964,1.744s-.506.908-.627,1.109v-.1a3.973,3.973,0,0,1,.916-2.025,4.4,4.4,0,0,0,.916-2.122.242.242,0,0,0-.193.089l-.1.1a12.923,12.923,0,0,0-2.893,5.5c-.265.9-.466,1.688-.635,2.355-.04.185-.113.418-.169.619a.867.867,0,0,0-.458.209c-1.029.643-2.009,1.27-2.942,1.873q-1.4.928-2.942,1.985-2.6,1.736-5.208,3.52c-1.736,1.181-3.472,2.363-5.208,3.512a17.99,17.99,0,0,1-3.761,2.226c-.45.185-.884.386-1.3.579a1.237,1.237,0,0,1-1.3-.193,1.323,1.323,0,0,1-.627-1.214q.048-.712.048-1.4a1.565,1.565,0,0,1,.193-.86,14.22,14.22,0,0,1,.82-2.6,20.437,20.437,0,0,1,1.206-2.411,31.282,31.282,0,0,1,3.183-4.782,44.789,44.789,0,0,1,3.858-4.188,19.173,19.173,0,0,1,2.025-1.591,4.513,4.513,0,0,1,2.6-.723c.321.257.643.514.964.763a4.468,4.468,0,0,0,1.157.675,2.324,2.324,0,0,0,1.543.538,3.309,3.309,0,0,0,1.543-.538,1.915,1.915,0,0,0,.772-.965,1.051,1.051,0,0,0-.1-1.149,11.4,11.4,0,0,0-1.013-1.4,3.045,3.045,0,0,0-1.4-.916c-.836-.322-1.656-.627-2.459-.924a7.782,7.782,0,0,0-2.652-.426.36.36,0,0,1-.434.088,1.346,1.346,0,0,0-.434-.088q.289-.965-.289-.965c-.321.057-.627.129-.916.193s-.595.129-.916.185c-.386.265-.772.169-1.149-.289a4.3,4.3,0,0,0,.715-.675c.225-.249.5-.538.82-.86a33.977,33.977,0,0,0-4.244.578,2.509,2.509,0,0,0-1.109.338q-.338.241-1.4,1.206a3.362,3.362,0,0,1-.675.675q-.386.29-.868.675a11.4,11.4,0,0,0-4.244,4.147.614.614,0,0,1-.289.281,1.993,1.993,0,0,0-.386.289,4.395,4.395,0,0,0,.1-.86,1.171,1.171,0,0,1,.193-.675,9.922,9.922,0,0,0-1.736,2.315,19.216,19.216,0,0,0-1.157,2.6,37.079,37.079,0,0,0-1.3,3.866l-.008.04c-.313.305-.643.595-.948.924-.547.571-1.117,1.214-1.7,1.929a47.624,47.624,0,0,1-6.261,6.077,2.613,2.613,0,0,1-.78.1V393.3c-.185.45-.354.82-.482,1.109s-.257.595-.378.916a.673.673,0,0,1-.048.29.669.669,0,0,0-.048.289c-.2.129-.273-.056-.241-.53a10.877,10.877,0,0,1,.241-1.688c.121-.707.313-1.575.571-2.6.707-1.736,1.35-3.32,1.929-4.726q.784-1.832,1.3-3.327a4.53,4.53,0,0,0,.434-1.688c-.064-.129-.153-.081-.289.136-.129.233-.273.49-.434.779a8.014,8.014,0,0,0-.386.812c-.088.265-.137.354-.137.3a7.628,7.628,0,0,1,.281-.924c.193-.538.394-1.133.579-1.776.2-.643.37-1.262.538-1.833.153-.579.2-.9.137-.965-.121-.064-.257.129-.386.571-.129.458-.289,1-.474,1.64a16.77,16.77,0,0,0-.675,2.516c-.072,0-.1.032-.1.1v.193c0-.064-.064-.1-.185-.1a1.626,1.626,0,0,1,.185-.86,14.478,14.478,0,0,1,.289-1.543c.129-.515.265-1.029.386-1.543a2.336,2.336,0,0,0,.2-.916,1.733,1.733,0,0,0-.3-.916,5.154,5.154,0,0,0-3.126-1.495,13.855,13.855,0,0,0-3.528.145,3.1,3.1,0,0,0-.241.627,1.725,1.725,0,0,1-.233.53q-.687,2.315-1.35,4.533c-.458,1.479-.9,2.957-1.35,4.428-.321,1.029-.611,2.042-.876,3.038s-.506,2.01-.764,3.038c-.064.329-.137.627-.2.924a4.794,4.794,0,0,0-.088.916,7.273,7.273,0,0,0,1.013,4.051,6.969,6.969,0,0,0,1.776,2.025,3.216,3.216,0,0,0,2.363.426c1.125-.089,2.009-.137,2.652-.137a2.1,2.1,0,0,0,1.109-.434c.426-.289.884-.595,1.407-.916l1.736-1.35c1.286-1.286,2.435-2.516,3.464-3.665a33.731,33.731,0,0,0,2.411-2.652c.386-.482.667-.82.884-1.069.04.241.024.482.08.731a.424.424,0,0,1,.1.474,1.677,1.677,0,0,0-.1.49,7.935,7.935,0,0,0,1.061,4.814,25.236,25.236,0,0,0,1.64,2.226,13.256,13.256,0,0,0,1.929,1.929,6.656,6.656,0,0,0,.812.563l-.032.057a5.728,5.728,0,0,0,.088,4.067,2.29,2.29,0,0,1,.41.675c.1.265.249.563.4.884l-.161.145a1.973,1.973,0,0,1-1.3.225c-.466-.072-.868-.153-1.214-.241a3.107,3.107,0,0,0-1.527.08,2.693,2.693,0,0,0-1.141.731,2.728,2.728,0,0,0-.6,1.2,2.433,2.433,0,0,0,.113,1.447.547.547,0,0,0,.185.53,1.443,1.443,0,0,0,.659.41,12.892,12.892,0,0,0,3.882.418A8.878,8.878,0,0,0,49,410.577a4.457,4.457,0,0,0,1.993-2.918,5.631,5.631,0,0,0-.474-3.665,6.527,6.527,0,0,0-.635-.973c-.153-.2-.346-.5-.538-.788a14.6,14.6,0,0,0,2.058.032,8.043,8.043,0,0,1,1.109-.29,2.88,2.88,0,0,0,1.109-.49c.9-.643,1.8-1.254,2.7-1.824s1.8-1.166,2.7-1.736a24.712,24.712,0,0,0,3.52-2.757,36.342,36.342,0,0,0,3.038-3.223c1.093-1.166,2.154-2.315,3.183-3.48.547-.611,1.133-1.262,1.7-1.9-.056.346-.121.691-.161,1.037-.064.643-.153,1.318-.281,2.025a3.289,3.289,0,0,0,.571,2.315,1.8,1.8,0,0,1,.587.675,6.342,6.342,0,0,0,.378.675,5.489,5.489,0,0,0,.924,1.639,9.493,9.493,0,0,0,1.3,1.35q.579.482.916.82a7.8,7.8,0,0,0,.82.715,8.523,8.523,0,0,1,1.39.49c.418.184.828.354,1.214.482.249.056.506.128.772.193a1.358,1.358,0,0,0,.868-.1,9.962,9.962,0,0,0,2.315-.474,16.478,16.478,0,0,0,2.411-1.061q.964-.675,1.977-1.4a22.766,22.766,0,0,0,1.873-1.495,11.525,11.525,0,0,0,2.99-3.761,11.388,11.388,0,0,1,1.165-2.411,7.675,7.675,0,0,0,3-.683,3.467,3.467,0,0,0,.177,1.647,1.414,1.414,0,0,1,0,1.447,7.2,7.2,0,0,0-.088,3.858,5.507,5.507,0,0,0,.088.957,1.3,1.3,0,0,0,.49.779,10.1,10.1,0,0,0,1.921,1.833c.715.515,1.423,1.021,2.13,1.543l.675.233q.374.157.772.338c1.222.073,2.435.089,3.665.057a9.349,9.349,0,0,0,3.569-.82,17.133,17.133,0,0,0,6.751-5.208,17.884,17.884,0,0,0,1.2-1.351,13.018,13.018,0,0,1,1.117-1.254c.506-.522.981-.965,1.4-1.35s.844-.812,1.3-1.254a9.013,9.013,0,0,0,2.025-2.411v-.008a7.016,7.016,0,0,0,.86.587,14.489,14.489,0,0,0,2.564,1.246,9.879,9.879,0,0,0,2.837.587,2.458,2.458,0,0,0,.675.089,1.783,1.783,0,0,1,.78.2,2.253,2.253,0,0,1,1.736,1.149,5.077,5.077,0,0,1,.137.627,4.1,4.1,0,0,0,.241.828,5.03,5.03,0,0,1-.338,1.784,18.512,18.512,0,0,1-.812,1.881,23.725,23.725,0,0,1-2.652,4.678,18.747,18.747,0,0,1-4.107,4,2,2,0,0,0-.772.531,5.6,5.6,0,0,0-.474.627,14.476,14.476,0,0,1-2.074,1.438,15.98,15.98,0,0,1-2.266,1.069c-.321-.193-.45-.426-.386-.675a2.135,2.135,0,0,1,.281-.675,10.707,10.707,0,0,1,2.371-3.906c1.061-1.125,2.194-2.331,3.424-3.617.707-.707,1.334-1.367,1.873-1.977a16.736,16.736,0,0,0,1.5-1.985,4.272,4.272,0,0,0,.185-2.21c0-.514-.321-.779-.956-.779a2.545,2.545,0,0,0-1.206.1c-.354.128-.788.281-1.31.482a53.872,53.872,0,0,0-5.883,3.617,22.537,22.537,0,0,0-4.822,4.581,24.037,24.037,0,0,0-2.5,3.375,7.092,7.092,0,0,0-1.069,3.762v.86a5.389,5.389,0,0,0,1.206,1.841c.482.442.989.86,1.5,1.254a10.457,10.457,0,0,0,3.657,1.535,8.466,8.466,0,0,0,4.919-.57c.908-.322,1.784-.683,2.652-1.069a18.907,18.907,0,0,0,2.66-1.439,4.673,4.673,0,0,0,.474-.289.828.828,0,0,1,.78,0,2,2,0,0,1-.579.675c-.265.193-.522.378-.772.579-.257.121-.538.273-.828.434s-.563.305-.812.426a2.859,2.859,0,0,1-1.013.394.893.893,0,0,0-.723.571,3,3,0,0,0,1.736-.378q.374-.192.723-.386c.225-.129.394-.129.53,0a1.766,1.766,0,0,0,1.246-.048,5.132,5.132,0,0,0,.876-.723,3.081,3.081,0,0,0,.627-.675,1.767,1.767,0,0,1,.812-.675,6.423,6.423,0,0,0,1.792-.964,14.313,14.313,0,0,0,1.294-1.166,13.242,13.242,0,0,1,1.543-1.824c.2-.128.37-.257.538-.386a.906.906,0,0,1,.619-.193,1.842,1.842,0,0,0,.916-.482,2.805,2.805,0,0,0,.442-.779,25.075,25.075,0,0,0,1.873-3.464c.555-1.222,1.141-2.475,1.784-3.761a1.544,1.544,0,0,0-.482-.1.724.724,0,0,1-.378-.1,11.76,11.76,0,0,0,.579-2.025A1.388,1.388,0,0,0,140.954,394.551Zm-28.01-18.325a1.184,1.184,0,0,1,.675,1.447.773.773,0,0,0-.241.482.473.473,0,0,1-.249.386,15.764,15.764,0,0,1-2.114,2.411,12.465,12.465,0,0,1-2.9,1.929A11.067,11.067,0,0,1,112.944,376.226ZM87.579,389.054a10.737,10.737,0,0,1-2.226,2.17c-.828.611-1.7,1.206-2.6,1.785a3.314,3.314,0,0,1-1.069.723,6.453,6.453,0,0,0-1.149.627,4.06,4.06,0,0,1-.675.337,5.773,5.773,0,0,0-.876.426,4.658,4.658,0,0,1-.474-2.99q.277-1.338.675-2.7c.121-.643.273-1.3.426-1.977a3.179,3.179,0,0,1,1.3-1.776,4.822,4.822,0,0,1,1.5.675,6.031,6.031,0,0,0,1.688.764,8.3,8.3,0,0,0,1.824.538,6.074,6.074,0,0,1,1.648.522c.193.136.257.273.193.442C87.7,388.772,87.635,388.925,87.579,389.054Zm2.99-8.3a6.737,6.737,0,0,1-.587,3.094A1.668,1.668,0,0,1,88.342,385a6.789,6.789,0,0,1-.86-.048,5.3,5.3,0,0,1-.78-.152,3.478,3.478,0,0,0-.772-.089A7.745,7.745,0,0,1,84,383.452a3.125,3.125,0,0,1-.964-.812,2.829,2.829,0,0,1-.185-1.214,10.2,10.2,0,0,0,.241-1.487,4.314,4.314,0,0,0-.241-1.592,6.615,6.615,0,0,1,3.665-5.4,1.619,1.619,0,0,1,2.411.193,4.72,4.72,0,0,1,1.728,2.8,2.673,2.673,0,0,0,.153.916,1.729,1.729,0,0,1,.048.908A9.283,9.283,0,0,0,90.569,380.751Zm6.012,6.446.145-.072c-.072.128-.1.241-.177.377C96.54,387.382,96.589,387.309,96.581,387.2Z" transform="translate(35.707 -346.979)" fill="#fff"/></g><g transform="translate(11.687 356.869)"><path d="M63.327,380.6a1.666,1.666,0,0,0-.723-1.889,3.1,3.1,0,0,1,.193-1.149c.386-1.286.707-2.532.964-3.721s.579-2.427.964-3.713q.289-.772.627-1.64a19.983,19.983,0,0,0,.627-1.921,2.368,2.368,0,0,1-.675.185.591.591,0,0,0-.386.193,16.261,16.261,0,0,1,.1-1.881,15.227,15.227,0,0,0,.1-1.784,2.72,2.72,0,0,0-1.543-2.789,18.158,18.158,0,0,0-3.424-1.407,7.28,7.28,0,0,0-4.1.145q-.289.772-.627,1.688t-.723,1.977c-.707,2.258-1.447,4.517-2.218,6.8A23.2,23.2,0,0,1,49,376.2q-2.99,4.63-5.98,8.825a91.132,91.132,0,0,1-6.655,8.246q-3.086,3.376-6.269,6.559a89.527,89.527,0,0,1-6.848,6.173,12.084,12.084,0,0,1-1.543,1.157,12.013,12.013,0,0,0-1.254.876c-1.093-.458-1.479-1.069-1.157-1.841.129-.771.241-1.551.338-2.363.1-.8.209-1.624.338-2.452.45-1.487.868-3.022,1.254-4.637s.8-3.142,1.254-4.629c.707-2.443,1.4-4.879,2.074-7.33a65.958,65.958,0,0,1,2.459-7.225c.064-.072.482-.747,1.254-2.033s1.591-2.7,2.459-4.244,1.672-2.974,2.411-4.292,1.141-2.009,1.206-2.074a24.968,24.968,0,0,1-2.315,2.612c-.45.378-.627.426-.53.137a8.931,8.931,0,0,1,.916-1.591,17.368,17.368,0,0,1,2.122-2.508c1.543-1.222,2.363-2.082,2.459-2.6s-.177-.8-.82-.868a18.011,18.011,0,0,0-4.244-.531,5.41,5.41,0,0,0-3.086,1.109c-.9-.185-1.447,0-1.64.579s-.386,1.125-.579,1.64c-.321.651-.659,1.31-1.013,1.985s-.723,1.358-1.109,2.066a19.009,19.009,0,0,1-.772,2.894c.386.715.4,1.27.048,1.7a8.248,8.248,0,0,1-1.3,1.2,12.512,12.512,0,0,0,.627-1.447,13.849,13.849,0,0,1,.627-1.447,2.228,2.228,0,0,0-1.3,1.205,2.761,2.761,0,0,0-.145,1.688,3.541,3.541,0,0,1-.675.868,1.3,1.3,0,0,1,.241,1.254c-.161.33-.4.772-.723,1.35a3.33,3.33,0,0,1,.1-1.013,1.15,1.15,0,0,0,.1-.434q-.675.964-1.4,2.026t-1.495,2.411a31.53,31.53,0,0,1,2.363-7.137,36.257,36.257,0,0,0,2.459-6.944,3.937,3.937,0,0,0-.916,1.069c-.225.385-.466.8-.723,1.246a11.1,11.1,0,0,1-.482,1.206,11.75,11.75,0,0,0-.482,1.206q-.868,2.315-1.688,4.629T17.37,379c-.321,1.157-.627,2.275-.916,3.327s-.595,2.17-.916,3.327c-.579,2.259-1.157,4.485-1.736,6.7s-1.125,4.452-1.64,6.7a16.58,16.58,0,0,0-.289,6.366,9.978,9.978,0,0,0,2.99,5.5c.129,0,.209.088.241.241s.113.249.241.249a17.753,17.753,0,0,0,3.183,2.065,6.326,6.326,0,0,0,3.761.53,15.266,15.266,0,0,0,5.063-1.921,21.253,21.253,0,0,0,4.1-3.376c1.479-1.672,2.877-3.287,4.2-4.83a40.535,40.535,0,0,0,3.713-5.112,18.914,18.914,0,0,1,2.556-3.858q1.495-1.736,2.845-3.569.579-.675,1.157-1.447t1.447-1.833v2.227c-.257,1.278-.5,2.548-.723,3.8s-.5,2.491-.82,3.713a94.449,94.449,0,0,0-1.784,11.14,62.359,62.359,0,0,0-.048,11.236,30.161,30.161,0,0,0,.723,4.726,9.893,9.893,0,0,0,2.17,4.147,3.871,3.871,0,0,0,1.4,1.254,4.23,4.23,0,0,0,2.17-.289c.064-2.508.209-4.927.434-7.282s.482-4.485.772-6.414.595-3.577.916-4.967a12.15,12.15,0,0,1,.964-2.933c-.129,1.286-.289,2.5-.482,3.665-.193,1.149-.354,2.347-.482,3.561a4.437,4.437,0,0,0,.772-1.5,5.408,5.408,0,0,0,.193-1.39c.257-.973.482-1.969.675-3s.45-2.082.772-3.183a98.2,98.2,0,0,1,3.472-12.1q2.122-5.932,4.147-12.008C62.861,381.894,63.1,381.275,63.327,380.6Zm-8.005,21.837a2.9,2.9,0,0,0-.145.772h-.482q.193-.482.338-.916a2.794,2.794,0,0,0,.145-.908.832.832,0,0,0,.482.29A2.732,2.732,0,0,0,55.322,402.437Zm5.3-16.782c-.1.266-.209.547-.338.868H60.1a3.853,3.853,0,0,1,.386-1.736h.482Q60.771,385.269,60.626,385.655Zm.241-6.7q-.386,2.556-1.109,5.5t-1.736,5.843a30.809,30.809,0,0,1-1.977,4.621,98.339,98.339,0,0,1,2.315-9.934q1.35-4.629,2.6-9.733A10.452,10.452,0,0,1,60.867,378.952Zm1.881-7.475a4.651,4.651,0,0,0,.82-1.921,10.956,10.956,0,0,1-.145,2.162,5.9,5.9,0,0,1-1.109,1.881A2.767,2.767,0,0,1,62.748,371.477Z" transform="translate(-11.687 -342.906)" fill="#fff"/><path d="M25.383,366.853a8.632,8.632,0,0,0,2.6.579,2.882,2.882,0,0,0,2.21-.386,2.165,2.165,0,0,0,1.262-2.026,2.276,2.276,0,0,0-1.157-1.929,7.084,7.084,0,0,0-3.183-.675H26.058a4.545,4.545,0,0,0-1.254.193,9.45,9.45,0,0,0-.973,1.833,2.1,2.1,0,0,0,.249,1.591A1.649,1.649,0,0,0,25.383,366.853Z" transform="translate(73.372 -317.835)" fill="#fff"/><path d="M181.634,414.667a6.044,6.044,0,0,1,.153-.683.491.491,0,0,0-.386-.619c-.329-.1-.715-.217-1.165-.338.2-1.615-.611-3-2.411-4.155a16.126,16.126,0,0,0-7.418-2.8c-.458-.064-.924-.121-1.4-.193a4.05,4.05,0,0,1-1.3-.386,5.219,5.219,0,0,0,.289-.723,2.206,2.206,0,0,1,.386-.724,17.028,17.028,0,0,1,2.741-3.81,46.078,46.078,0,0,1,3.625-3.424,2.472,2.472,0,0,1,.908-.723,6.586,6.586,0,0,0,1.206-.723.644.644,0,0,1,.964-.088c.265.12.386.273.386.426a.623.623,0,0,1-.185.434,9.2,9.2,0,0,1-1.64,2.315c-.587.458-1.1.884-1.551,1.3s-.932.82-1.439,1.214c-.137.121-.289.273-.49.426a.473.473,0,0,0-.1.627,6.215,6.215,0,0,0,1.551.587,3.376,3.376,0,0,0,1.35-.1,3.182,3.182,0,0,0,2.5-.964,18.822,18.822,0,0,0,3.424-3.038,8.538,8.538,0,0,0,1.977-3.9,7.848,7.848,0,0,1-.474-.731c-.137-.225-.3-.466-.49-.723a1.279,1.279,0,0,1-.289-.193,3.8,3.8,0,0,0-.386-.289,6.8,6.8,0,0,0-5.586-.868,9.931,9.931,0,0,1-1.117.145,3.583,3.583,0,0,0-1.013.241,8.184,8.184,0,0,0-3.472,1.35c-.7.514-1.39,1.069-2.066,1.64a7.713,7.713,0,0,0-1.688,2.025c-.265.193-.522.41-.78.627s-.539.5-.86.82q-.482-.193-.048-.53c.281-.217.3-.434.048-.627a.733.733,0,0,0-.386.1,10.768,10.768,0,0,0-1.744,2.5c-.45.9-.86,1.833-1.246,2.8a3.6,3.6,0,0,0,0,2.363,2.8,2.8,0,0,0,.442.643l-.145.129c-.723.675-1.567,1.479-2.564,2.411s-2.041,1.889-3.135,2.845a18.2,18.2,0,0,1-2.99,2.218c-.772.2-1.157.064-1.157-.386a2.51,2.51,0,0,1,.088-1.1c.137-.619.265-1.182.394-1.688a4.463,4.463,0,0,0,.193-.49,1.826,1.826,0,0,0,.1-.474,8.371,8.371,0,0,1,.53-1.31q.434-.916.338-1.013-.289-.084-.772.868l-.579,1.157v.1a.232.232,0,0,1-.048.153.177.177,0,0,0-.048.137,2.252,2.252,0,0,0-.241.771,3.564,3.564,0,0,1-.241.868c-.129.522-.281,1.045-.434,1.6-.169.539-.338,1.069-.538,1.583-.185,0-.265-.225-.233-.675a16.861,16.861,0,0,1,.233-1.688c.137-.675.313-1.4.538-2.17s.434-1.447.627-2.025c.45-1.222.876-2.435,1.3-3.665s.852-2.467,1.3-3.753c.322-1.029.6-2.042.868-3.038s.482-2.009.675-3.046c.129-.128.145-.225.04-.281a4.131,4.131,0,0,1-.338-.3c-.185.514-.362,1-.522,1.447a13.163,13.163,0,0,1-.627,1.447q-.482-.675-.868-1.157a5.174,5.174,0,0,0-2.025-1.543,3.322,3.322,0,0,0-2.6.1.356.356,0,0,1-.241.088.529.529,0,0,0-.338.193c-.137.33-.273.7-.434,1.109s-.305.82-.434,1.206a4.447,4.447,0,0,1-.579,1.254,1.872,1.872,0,0,1-1.157.772,3.474,3.474,0,0,0-1.591-1.4,13.088,13.088,0,0,0-2.363-.86,13.989,13.989,0,0,0-2.315-.442q-1.061-.1-1.35-.1H137.9a.394.394,0,0,1-.289-.1c-.137-.193-.064-.289.185-.289a1.066,1.066,0,0,1,.587-.088,4.906,4.906,0,0,1,.964.088,4.466,4.466,0,0,0,.868.1c.249,0,.386-.032.386-.1q.1-.1-.193-.241a4.935,4.935,0,0,1-.587-.337,3.6,3.6,0,0,0-.86-.29h-2.8a18.349,18.349,0,0,1-2.6-.193,1.467,1.467,0,0,0-1.455.868,3.788,3.788,0,0,1,2.516-.1,1.375,1.375,0,0,1-.338,1.013,8.88,8.88,0,0,1-.828.723h-.281a.256.256,0,0,1-.289-.289c0-.129.177-.3.53-.53s.362-.394.04-.53a1.367,1.367,0,0,0-.571.241,8.5,8.5,0,0,0-.82.587,5.407,5.407,0,0,0-.723.627c-.193.185-.321.281-.386.281q-.579.386-.579.193a2.714,2.714,0,0,1,.482-.675,3.727,3.727,0,0,0,.338-.386q.145-.193-.048-.1l-.482.482c-.193.2-.386.386-.579.587a6.5,6.5,0,0,0-.675.763,13.4,13.4,0,0,0-3.086,5.691,14.315,14.315,0,0,0-.338,3.48c-.8.965-1.68,1.994-2.749,3.175-1.222,1.35-2.467,2.716-3.713,4.1s-2.267,2.532-3.038,3.424a20.543,20.543,0,0,1,.868-5.248c.514-1.7,1.1-3.392,1.776-5.072.683-1.664,1.366-3.319,2.082-4.959s1.31-3.239,1.832-4.782a3.679,3.679,0,0,0-.048-2.122,4.432,4.432,0,0,0-1.013-2.026q-.579-.482-1.109-.916a2.522,2.522,0,0,0-1.3-.53c-.78-.056-1.543-.113-2.315-.145a5.217,5.217,0,0,0-2.411.531q-2.315,1.061-4.493,2.315a12.608,12.608,0,0,0-3.8,3.472,1.356,1.356,0,0,1-.579.193.671.671,0,0,0-.048-.289.345.345,0,0,1,.048-.289,8.616,8.616,0,0,0,.426-3.231,3.061,3.061,0,0,0-.764-1.833,2.709,2.709,0,0,0-1.495-.764,4.353,4.353,0,0,0-1.736.04,12.565,12.565,0,0,0-5.747,2.8,31.022,31.022,0,0,0-4.187,4.63,4.318,4.318,0,0,0-.579.337c-.129.1-.289.016-.49-.241a58.779,58.779,0,0,1,3.094-9.934,2.531,2.531,0,0,0-2.025-2.026,5.788,5.788,0,0,0-3.954.482,5.449,5.449,0,0,0-2.7,2.315c-.78,1.543-1.543,3.118-2.315,4.726a27.523,27.523,0,0,0-1.832,5.015l-.193.386a.594.594,0,0,1-.386.289,6.124,6.124,0,0,1,.386-2.99q.663-1.929,1.35-3.761a36.911,36.911,0,0,0,1.157-3.754,1.7,1.7,0,0,1,.193-.964,1.472,1.472,0,0,0-.635.619c-.088.225-.177.4-.233.531-.321.771-.627,1.535-.916,2.266a18.255,18.255,0,0,0-.723,2.275q-.482,2.11-1.013,4.139t-1.109,4.051c-.257,1.093-.514,2.162-.772,3.191-.129.49-.217.989-.33,1.479-.426.474-.86.948-1.31,1.511a47.716,47.716,0,0,1-6.269,6.076,2.855,2.855,0,0,1-.772.089v-2.411q-.289.675-.482,1.109t-.386.916a.591.591,0,0,1-.056.3.649.649,0,0,0-.04.289c-.193.121-.281-.056-.241-.538a12.114,12.114,0,0,1,.241-1.688q.193-1.061.579-2.6,1.061-2.6,1.929-4.726c.506-1.214.948-2.331,1.3-3.327a4.5,4.5,0,0,0,.434-1.688c-.064-.121-.169-.081-.289.144s-.273.482-.434.772a5.231,5.231,0,0,0-.386.82c-.1.257-.145.353-.145.289a6.658,6.658,0,0,1,.289-.916c.193-.547.386-1.141.571-1.784s.37-1.254.53-1.824c.161-.587.209-.908.145-.973-.129-.056-.249.129-.378.579s-.3,1-.482,1.64a16.654,16.654,0,0,0-.675,2.507.091.091,0,0,0-.1.1v.2c0-.064-.056-.1-.193-.1a1.578,1.578,0,0,1,.193-.868,13.061,13.061,0,0,1,.3-1.543c.129-.506.249-1.029.378-1.535a2.528,2.528,0,0,0,.2-.924,1.791,1.791,0,0,0-.289-.916,5.142,5.142,0,0,0-3.135-1.487,14.116,14.116,0,0,0-3.52.137,2.459,2.459,0,0,0-.241.627,1.66,1.66,0,0,1-.249.538c-.45,1.535-.892,3.054-1.35,4.525-.45,1.487-.892,2.957-1.342,4.436l-.016.048c-.249.2-.538.442-.9.772-.8.739-1.744,1.632-2.8,2.66s-2.186,2.13-3.376,3.327c-1.2,1.182-2.315,2.3-3.376,3.327s-1.961,1.889-2.709,2.6c-.731.715-1.173,1.133-1.294,1.254-.33.137-.643.273-.964.434a3.76,3.76,0,0,1-1.013.338,1.3,1.3,0,0,1-1.013-.233A2.872,2.872,0,0,1,44.446,419v-1.158a8.422,8.422,0,0,1,.193-2.556c.193-.868.386-1.72.571-2.556A33.253,33.253,0,0,1,46.7,407q1.013-2.857,2.082-5.65c.506-1.479,1.077-2.942,1.688-4.38a41.363,41.363,0,0,1,1.969-4.107c.715-1.415,1.366-2.813,1.977-4.2s1.246-2.845,1.881-4.388c.643-.193,1.278-.354,1.889-.482a5.316,5.316,0,0,0,1.688-.675c.635-.193,1.206-.37,1.688-.53a7.182,7.182,0,0,0,1.495-.715.948.948,0,0,0,.482-.394q.181-.289.386-.579a.908.908,0,0,0,.1-.868,1.3,1.3,0,0,0-.579-.579,6.243,6.243,0,0,0-.868-.281,3.255,3.255,0,0,0-.868-.1,4.736,4.736,0,0,0-1.35,0,1.829,1.829,0,0,1-1.35-.386,10.575,10.575,0,0,1,.916-2.363c.41-.8.82-1.591,1.2-2.363.321-.9.587-1.72.78-2.451s.378-1.535.571-2.363a8.275,8.275,0,0,0-3.271-2.025,7.136,7.136,0,0,0-3.287-.2,2.843,2.843,0,0,0-1.921,1.64c-.522.908-.981,1.8-1.407,2.7-.41.908-.852,1.833-1.294,2.8-.137.257-.241.5-.338.723s-.346.338-.731.338a1.5,1.5,0,0,1-.185-.482,1.867,1.867,0,0,1,.289-1.254,1.42,1.42,0,0,0,.627-.233,4.671,4.671,0,0,0,.338-.442c.064-.321,0-.5-.2-.522s-.129-.249.2-.635a7.211,7.211,0,0,1,.338-.82c.153-.353.338-.723.53-1.109a5.946,5.946,0,0,0,.426-1.061,2.452,2.452,0,0,0,.145-.675c-.056-.056-.273.193-.627.772s-.731,1.222-1.149,1.929-.788,1.382-1.109,2.025-.514.964-.587.964a.3.3,0,0,0-.088.193v.193a6.244,6.244,0,0,0-.386,1.158,4.08,4.08,0,0,0-.241.82c-.1.418-.209.86-.338,1.3a9.725,9.725,0,0,0-.3,1.262c-.056.386-.056.571,0,.571.265-.515.458-.924.587-1.254.121-.313.249-.619.378-.916s.225-.5.3-.627a.751.751,0,0,0,.289.482,2.107,2.107,0,0,1-.434.482c-.161.129-.313.265-.442.386a1.04,1.04,0,0,1,.394.675c.121.522.121.82,0,.924a8.644,8.644,0,0,1-.964.522c-.321,0-.514.1-.587.289a.709.709,0,0,1-.426-.474,2.378,2.378,0,0,1-.048-.49,3.2,3.2,0,0,1-2.315,1.736,19.406,19.406,0,0,0-3.665,1.109A26.977,26.977,0,0,0,37.6,383.6a3.439,3.439,0,0,0,2.6,2.8,4.481,4.481,0,0,1,2.419,1.165c.313.249.514.281.571.089s.169-.289.3-.289h.338a.583.583,0,0,0,.426-.193,1.971,1.971,0,0,0-.088.53.618.618,0,0,1-.193.434c-.45.964-.868,1.9-1.262,2.8-.378.892-.731,1.792-1.053,2.692a7.544,7.544,0,0,1-.53,1.447,11.875,11.875,0,0,0-.627,1.447c-.137,0-.193-.1-.193-.289.378-1.222.675-2.186.868-2.893s.346-1.351.482-1.929.161-.9.088-.964c-.056-.064-.249.37-.571,1.3s-.675,2.009-1.061,3.231-.764,2.363-1.109,3.424a13.259,13.259,0,0,0-.53,1.784v.193a6.4,6.4,0,0,0-.675,1.157,5.06,5.06,0,0,0-.1,1.35c.064,0,.161-.129.3-.386a8.741,8.741,0,0,0-.3,1.013,3.86,3.86,0,0,0-.088.627c-.129.257-.129.458,0,.579.064.064.153.064.281,0a25.337,25.337,0,0,1,.675-2.6c.2-.707.394-1.366.587-1.977a9.9,9.9,0,0,1,.482-1.3c.056-.193.249-.289.571-.289v.394a1.822,1.822,0,0,1-.233.908,3.882,3.882,0,0,0-.338.723c-.579,1.567-1.053,3-1.551,4.453a1.292,1.292,0,0,0-.185-.305,8.547,8.547,0,0,1-.868,1.061q-.868,1.061-1.061,1.061c-1.808,1.736-3.247,3.11-4.34,4.1-1.093,1-2.122,1.9-3.086,2.7a7.483,7.483,0,0,1-1.64,1.206q-.289-.1-.289-.723a5.87,5.87,0,0,1,.193-1.4,11.094,11.094,0,0,1,.579-1.832,23.389,23.389,0,0,0,.675-2.259,18.932,18.932,0,0,1,.675-2.274,4.8,4.8,0,0,0,.241-1.013,1.123,1.123,0,0,0-.241-.82,2.758,2.758,0,0,1,0-1.447q.868-2.507,1.784-5.112c.611-1.736,1.238-3.432,1.881-5.112q.663-1.736,1.447-3.609.772-1.893,1.543-3.818a118.214,118.214,0,0,1,5.3-12.056c.321-.571.643-1.141.964-1.688a9.918,9.918,0,0,0,.772-1.592q1.061-2.122,2.074-4.244a18.769,18.769,0,0,1,2.652-4.051,2.365,2.365,0,0,0,.289-.482,1.453,1.453,0,0,0-.289-2.025,3.11,3.11,0,0,0-1.736-.579,20.425,20.425,0,0,1-2.411.056,22.228,22.228,0,0,0-2.411.04,3.883,3.883,0,0,0-3.665,2.122,1.8,1.8,0,0,0-.579.723,2.37,2.37,0,0,1-.482.723,7.276,7.276,0,0,0-2.122,3.279q-.482,1.35-.868,2.507c-.257.772-.547,1.583-.868,2.411q-.868,2.218-1.64,4.436a41.073,41.073,0,0,1-1.736,4.244c-.33.772-.643,1.511-.964,2.218s-.715,1.511-1.157,2.419a8.285,8.285,0,0,1,.627-3.713,7.585,7.585,0,0,0,.627-3.432c-.321.836-.619,1.672-.868,2.508l-.772,2.508q-.386.964-.82,1.833a2.168,2.168,0,0,0,.048,1.937q.193,0,.193.048c0,.024-.064.04-.193.04a10.923,10.923,0,0,0-.241,1.543,5.2,5.2,0,0,1-.338,1.447c-.45,1.937-.932,3.89-1.447,5.883s-1.125,3.955-1.833,5.883a1.451,1.451,0,0,0-.145.434c-.032.169-.209.273-.53.337a8.068,8.068,0,0,1,.289-1.4q.289-1.109.627-2.411t.627-2.459a8,8,0,0,0,.289-1.543c-.129.265-.354.771-.675,1.543s-.627,1.591-.916,2.459l-.82,2.459a6.314,6.314,0,0,0-.386,1.543q-.1.772-.145,1.447a2.358,2.358,0,0,0,.241,1.254,1.115,1.115,0,0,1,.193,1.061,12.2,12.2,0,0,0-.289,1.495q-.1.723-.289,1.591c-.321,1.222-.627,2.451-.916,3.665s-.595,2.483-.916,3.761a4.37,4.37,0,0,0-.048,1.109q.048.53.048,1.206a3.455,3.455,0,0,0,1.832,2.8,9.328,9.328,0,0,1,1.013.474c.346.2.683.386,1.013.579a3.536,3.536,0,0,0,2.218.1,12.976,12.976,0,0,0,4.244-2.025,21.074,21.074,0,0,0,2.122-2.459c1.093-1.374,2.218-2.861,3.376-4.437s2.218-3.014,3.183-4.332c.161-.225.233-.337.37-.53a28.3,28.3,0,0,0-.764,4.284,21.706,21.706,0,0,0,.193,4.87,12.072,12.072,0,0,0,3.384,7.145,7,7,0,0,0,1.688,1.246,2.128,2.128,0,0,0,1.969,0,2.817,2.817,0,0,0,1.358.048,8.187,8.187,0,0,0,1.061-.337c.378-.257.836-.546,1.35-.868.442-.321.981-.691,1.583-1.1A20.321,20.321,0,0,0,51,421.708q1.145-1.073,3.376-3.384t4.38-4.726c1.053-1.157,1.9-2.154,2.757-3.167-.129.506-.257,1-.394,1.527-.056.33-.121.627-.193.916a4.788,4.788,0,0,0-.088.916,7.271,7.271,0,0,0,1.013,4.051,6.848,6.848,0,0,0,1.776,2.026,3.222,3.222,0,0,0,2.363.434c1.133-.1,2.009-.144,2.652-.144a2.122,2.122,0,0,0,1.117-.426c.41-.3.884-.6,1.39-.924l1.744-1.35q1.917-1.929,3.464-3.665a33.987,33.987,0,0,0,2.419-2.652l.016-.024.08.072.1.1c0,.072.032.1.1.1,0,.908-.016,1.72-.056,2.459-.024.739-.04,1.5-.04,2.266a3.988,3.988,0,0,0,1.39,3.135,4.752,4.752,0,0,0,3.432.828,3.648,3.648,0,0,0,.675-.2,34.844,34.844,0,0,1,1.881-3.472q1.013-1.64,1.873-3.279c.514-.9,1.013-1.76,1.5-2.6.482-.828,1.013-1.7,1.591-2.6q.386-.579,1.736-2.315c.892-1.157,1.784-2.25,2.652-3.271a13.659,13.659,0,0,1,2.17-2.178q.868-.627.386.916a7.089,7.089,0,0,0-.434,2.652q.048,1.3.048,2.652a3.81,3.81,0,0,0,2.7,3.665,5.558,5.558,0,0,0,2.893-.193A3.271,3.271,0,0,0,105.5,408.2a3.422,3.422,0,0,1,.723-1.495,8.964,8.964,0,0,0,1.013-1.5,36.832,36.832,0,0,1,2.6-3.954c.964-1.278,1.993-2.54,3.086-3.761a5.51,5.51,0,0,1,4.629-2.315q-2.134,5.5-4.051,11.043a110.334,110.334,0,0,0-3.279,11.333,6.438,6.438,0,0,0,.289,4.34,4.6,4.6,0,0,0,1.736,1.977,5.065,5.065,0,0,0,2.114.723,4.2,4.2,0,0,0,2.13-.386,5.11,5.11,0,0,0,1.736-1.254,10.5,10.5,0,0,1,1.35-1.833c.828-.9,1.7-1.832,2.6-2.8a12.162,12.162,0,0,0,2.122-3.086,2.335,2.335,0,0,1,.579-.965,7.362,7.362,0,0,0,.675-.771c.185-.193.386-.4.571-.627l.048-.048a2.824,2.824,0,0,0,.916,1.254,26.407,26.407,0,0,1,2.275,1.688,7.532,7.532,0,0,0,2.652,1.4,5.3,5.3,0,0,0,2.99.1,11.933,11.933,0,0,0,2.6-.675,7.351,7.351,0,0,0,2.315-1.447c.193-.121.4-.257.627-.386a5.7,5.7,0,0,1,.82-.378l2.99-2.025a15.25,15.25,0,0,0,.193,2.5c.129.707.265,1.414.434,2.122a4,4,0,0,0,.82,1.744,3.666,3.666,0,0,0,1.4.956,5.716,5.716,0,0,0,1.969.434,10.649,10.649,0,0,0,2.226-.145,7.547,7.547,0,0,0,2.122-.675,11.422,11.422,0,0,0,2.652-2.258q1.688-1.8,3.376-3.866t3.094-3.8c.852-1.077,1.366-1.712,1.6-2.018a14.7,14.7,0,0,0,2.532,1.238,9.991,9.991,0,0,0,2.845.579,2.172,2.172,0,0,0,.675.1,1.886,1.886,0,0,1,.78.193,2.251,2.251,0,0,1,1.728,1.157,3.757,3.757,0,0,1,.145.627,4.193,4.193,0,0,0,.241.82,4.964,4.964,0,0,1-.338,1.784,19.371,19.371,0,0,1-.812,1.888,24.128,24.128,0,0,1-2.652,4.678,19.119,19.119,0,0,1-4.107,4,1.984,1.984,0,0,0-.772.522,6.392,6.392,0,0,0-.474.627A15.261,15.261,0,0,1,161.967,427a16.13,16.13,0,0,1-2.275,1.069q-.482-.3-.386-.675a2.16,2.16,0,0,1,.281-.675,10.8,10.8,0,0,1,2.379-3.914c1.061-1.117,2.194-2.331,3.424-3.617.7-.707,1.334-1.366,1.873-1.977a15.986,15.986,0,0,0,1.5-1.977,4.287,4.287,0,0,0,.185-2.211c0-.522-.321-.779-.956-.779a2.4,2.4,0,0,0-1.214.1c-.354.12-.78.281-1.3.474a55.252,55.252,0,0,0-5.891,3.617,22.544,22.544,0,0,0-4.814,4.589,23.208,23.208,0,0,0-2.508,3.376,7.042,7.042,0,0,0-1.069,3.753v.868a5.246,5.246,0,0,0,1.214,1.833,18.582,18.582,0,0,0,1.495,1.262,10.68,10.68,0,0,0,3.657,1.535,8.568,8.568,0,0,0,4.927-.571c.908-.321,1.784-.683,2.652-1.069a19.3,19.3,0,0,0,2.652-1.447,3.155,3.155,0,0,0,.482-.289.826.826,0,0,1,.78,0,1.872,1.872,0,0,1-.587.675c-.257.193-.514.386-.764.579-.265.128-.538.273-.828.434s-.563.305-.812.434a3.023,3.023,0,0,1-1.013.394.868.868,0,0,0-.723.571,3.026,3.026,0,0,0,1.736-.386c.249-.129.49-.249.715-.386s.4-.129.538,0a1.683,1.683,0,0,0,1.246-.048,4.786,4.786,0,0,0,.868-.723,2.757,2.757,0,0,0,.635-.675,1.765,1.765,0,0,1,.812-.675,6.428,6.428,0,0,0,1.792-.964,15.48,15.48,0,0,0,1.294-1.158,13.232,13.232,0,0,1,1.543-1.832,5.8,5.8,0,0,0,.538-.386.95.95,0,0,1,.619-.193,1.781,1.781,0,0,0,.916-.482,2.747,2.747,0,0,0,.442-.771,25.661,25.661,0,0,0,1.873-3.472c.555-1.214,1.141-2.475,1.784-3.761a1.81,1.81,0,0,0-.482-.089.724.724,0,0,1-.378-.1,11.768,11.768,0,0,0,.579-2.025A1.561,1.561,0,0,0,181.634,414.667ZM80.9,401.35v-.193H81a10.5,10.5,0,0,1-.1,1.4,5.813,5.813,0,0,0,0,1.495,8.958,8.958,0,0,1-.193,1.9l-.193.121c-.313.281-.611.595-.916.884.1-.587.217-1.165.289-1.752A15.4,15.4,0,0,1,80.9,401.35ZM79.722,410l.048-.048-.024.081Zm64.443-8.5a4.908,4.908,0,0,1-.675.828,47.073,47.073,0,0,1-8.286,8.48,9.153,9.153,0,0,1-2.508,1.254.706.706,0,0,1-.289-.868,12.567,12.567,0,0,1,4.822-7.9c.571-.522,1.157-1.029,1.736-1.551a13.826,13.826,0,0,1,1.929-1.439,2.762,2.762,0,0,1,3.183-.3l.868.579A7.327,7.327,0,0,0,144.164,401.494Z" transform="translate(30.389 -343.845)" fill="#fff"/><path d="M17.365,371.375c.394.072.812.128,1.262.193s.892.129,1.35.2a1.075,1.075,0,0,0,1.1-.289,1.82,1.82,0,0,0,.627-1.069,4.89,4.89,0,0,1,.249-1.784c.225-.86.514-1.8.868-2.8s.715-1.961,1.1-2.894.675-1.655.876-2.17a5.21,5.21,0,0,0,.386-1.881c0-.611-.04-1.238-.1-1.881-.129,0-.209-.008-.233-.048a.43.43,0,0,0-.249-.048,3.91,3.91,0,0,0-1.35.048,3.646,3.646,0,0,0-1.439.627,10.021,10.021,0,0,0-2.564,2.218,15.651,15.651,0,0,0-1.881,2.893,25.942,25.942,0,0,0-1.3,3.094,11.086,11.086,0,0,0-.619,2.99A2.424,2.424,0,0,0,17.365,371.375Z" transform="translate(14.713 -356.869)" fill="#fff"/></g></g></svg>